<svg xmlns="http://www.w3.org/2000/svg" viewBox="0 0 627 672">
	<style>
		.sop-curio svg {
			background-image: url("images/sop-curio.png");
			background-size: 100% 100%;
			background-repeat: no-repeat;
			max-width: 700px;
			width: 100%;
			border: 0 solid #FFFFFF;
			border-radius: 15px;
		}
	</style>
	<g id="Curio" class="svg-item">
		<a href="https://www.kaplanco.com/product/31673/sense-of-place-curio-storage?c=1%7CSO1000&linkingParam=%7B%7D">
			<path
				d="M554 123c0-2 0-3-2-3l-22-7-5-1-345 7h-1s-3 2-3 5 4 4 5 4h2l1 420 2 3c1 1 2 3 4 3l6-3 1 42 1 2h15s6-7 8-12l2-7 275 7v5l8 17h15l3-3 1-19h15l3-3v-33l9-9 1-4-2-125-2-4v-3l-1 1v13l1 10-1 2-4-3-1-6v-11l-3 7-1 1-2 4-3 3-1-10 5-4 2-3-1-2-2-1h-4v-50l2-2 3-1h4l1 1 3-1 2-1v-7l-9-4-2-1-4-2v-3l15 8-1-11-2-3-2-4-2-3-4-3-4-3v-2h2c0 1 1 2 3 2l1-5-1-2-2 2-1 1h-2v-3l1-1-1-2v-4h1l-1-1v-63l1 1 1 2h7l2 2 3 2 2 1 2 1v-1l-1-2h1l-1-115 3-1 1-2zM195 245v-73c0-5 1-8 3-8l16 1c3 0 3 3 3 7l1 54v2l1 2v15h-24zm1 32h23l1 108-23 7-1-115zm22 228l-19 9-2-89h23l1 69c0 6-2 10-3 11z"/>
		</a>
	</g>
	<g id="CurioLabel" class="svg-label">
		<g>
			<path class="svg-label-fill" d="M332 149H101c-5 0-9-4-9-9V58c0-5 4-9 9-9h231c5 0 9 4 9 9v82c0 5-4 9-9 9z"/>
			<text transform="translate(113 89)" class="svg-text-base svg-text-bold svg-text-title">
				Curio Storage
			</text>
			<text transform="translate(113 125)" class="svg-text-base svg-text-price">
				$474.95
			</text>
		</g>
	</g>
</svg>
