<?xml version="1.0" encoding="utf-8"?>
<!-- Generator: Adobe Illustrator 23.0.6, SVG Export Plug-In . SVG Version: 6.00 Build 0)  -->
<svg version="1.1" xmlns="http://www.w3.org/2000/svg" xmlns:xlink="http://www.w3.org/1999/xlink" x="0px" y="0px"
	 viewBox="0 0 1200 890" style="enable-background:new 0 0 1200 890;" xml:space="preserve">
<style type="text/css">
	.st0{fill:none;}
	.st1{fill:#7C8A4F;stroke:#FFFFFF;stroke-width:5;stroke-miterlimit:10;}
	.st2{fill:#FFFFFF;}
	.st3{font-family:'OpenSans-Bold';}
	.st4{font-size:26px;}
	.st5{font-family:'OpenSans';}
	.st6{font-size:22px;}
</style>
<g id="Fireplace">
	<path class="st0" d="M799,240.6l0.2-28.6h8.7l2.1-1.7l-0.1-5.6l-1.7-1.6h-77c1.2,1.1,2.7,1.4,2.8,1.9c0.2,0.5,0.3,0.3,1,1
		c0.7,0.7,2.1,0.7,2.1,1.3c0,0.7,1.3,2.6,1.5,3.3c0.2,0.7-1,0.2,0,1.7c1,1.5,0.7,0.3,1,1.5c0.3,1.2,0.5-1.3,0.3,1.2
		c-0.2,2.5,0.8,2,0.1,3.5c-0.7,1.5-0.9-1.3-0.9,2.5s-0.3,2.8,0,5.1c0.3,2.3-0.5,1.8,0.5,3.8c1,2,0.7,2.3,2.3,3.1s2.3,1,2.5,1.8
		s-0.8,2.1,0,2.8c0.8,0.7,0.8,1.5,1.3,3.1s0.2,1.5,0.8,3c0.7,1.5,1.2,3,1.2,3v3.5c0,0-0.3,1,0,1.5c0.3,0.5,0,1.2,0,1.2
		s-0.8,0.5-1.3,0s-1.3-2.5-1.7-3.1c-0.3-0.7,0.3-3.6-0.3-5.3s-0.5-2-1.8-3.3c-1.3-1.3-1.8-2.5-3.2-4c-1.4-1.5-2.6-2.6-2.9-4.6
		s-0.3-3.3-1.7-4.1s-2.6-0.4-2.5-1.6c0.2-1.2,2.8-3,0.5-4.7c-2.3-1.7-4.3-1.3-4.6-3.5c-0.3-2.1-0.7-5-0.7-6.4c0-1.5,0.2-2.1-1-3.5
		s-2-2.6-2.3-3.1c-0.3-0.5-1.3-1.3-1.3-1.3s-1.2,3.5-1,4.8c0.2,1.3,1.1,2.3,0,4.6c-1.1,2.3-1.5,3.8-1.5,5.1s0.5,1.8,1.3,4.6
		c0.8,2.8,1.2,3.5,1.5,5.1s0.7,2.5,0.7,3.5s0.7,3.3,0.8,3.8c0.2,0.5,2,2.1,2.5,2.8c0.5,0.7,1,1.8,1,1.8s-1.8-0.8-3-1.8
		c-1.2-1-2-1.8-2.3-3.8c-0.3-2,0.3-1.5-0.3-3.8c-0.7-2.3-0.8-1.3-1.3-3.3s-0.5-1.5-0.8-3.1c-0.3-1.7-1.2-3.6-1.2-3.6l-0.5-3.3
		l-0.2-2.1c0,0-1,1.3-2.3,1.8c-1.3,0.5-2.1,1.2-2.6,1.2s-1.2,0.2-1.5,0.8c-0.3,0.7-0.5,1.5-0.2,2.5c0.3,1,0,2.1,0,2.1
		s-1.5,0.8-1.8,0s-1-1.8-1-1.8s-0.5-0.2-1-0.7c-0.5-0.5-0.7-1-0.7-1l-1.2-0.2l-1.2,0.7l-0.8,0.8c0,0-0.7,0.3-1,0.8s-1.3,0.7-1.3,0.7
		c-1,1-2,1.3-2,1.3c0-1.3,0.7-3.3,0.7-3.3c0.8-1,1.3-1.7,1.3-1.7l0.2-0.7c0-1,0-1-0.2-1.5c-0.2-0.5,0-0.5-0.3-1.2
		c-0.3-0.7-0.7-0.3-0.7-1.5c0-1.2-0.3-1,0-1.8c0.3-0.8,0.5-0.7,0.7-1.7c0.2-1,0.2-1,0.2-1.8s-0.5-1.7-0.5-1.7s-0.3-0.3-0.3-0.8
		s0.2-0.7-0.2-1.7c-0.3-0.8-0.5-1.6-0.7-2.2h-14c-0.3,1,0,2.3-0.8,3.4c-0.8,1.2-1,0.8-1.5,1.8s-0.5-0.5-0.5,1v2.3
		c0,0.5,0.2,0.5-0.3,1s-0.8,1.2-0.8,1.2l-1,1.5l-0.3,1.8c0,0-0.3,0.7-0.7,1.2c-0.3,0.5-0.7,1-0.7,1l-0.3,1.2h-1l-1-1.2l-1.5-2.5
		c0,0-1.2,0.2-1.3,1c-0.2,0.8-0.2,0.7-0.7,1c-0.5,0.3-1,0.7-1,0.7s-1.2,0-1.8,0.7c-0.7,0.7-0.5,0.2-1.3,1s-0.3,0.3-1.3,1
		c-1,0.7-0.8,0.7-1.7,0.8c-0.8,0.2-1.3-0.2-1.8,0c-0.5,0.2-1.2-0.2-1.2-0.2s-1-0.2-0.5-0.8c0.5-0.7,0.3-0.7,1-1.3
		c0.7-0.7,0.3-0.5,0.8-1.5c0.5-1,0.5-0.8,0.5-1.8c0-1,0.2-1,0.2-2c0-1-0.2-1.7,0-2.1c0.2-0.5-0.2-0.8,0.2-1.3
		c0.3-0.5,0.7-0.8,1.2-1.7s0.5-1,0.8-1.5s0.7-1,0.7-1s0.3-0.2,1-1s1-1.8,1-1.8s-0.2-0.3,0.7-0.8s1.5-0.8,1.5-0.8s0,0,0.1-0.1h-11.1
		c-0.3,0.2-0.6,0.4-0.8,0.7c-0.3,0.7-1,1.3-1,2.6s0.7,2.3,0.8,3.1c0.2,0.8,0.3,0,0.7,1.3c0.3,1.3,0.3,1,0.2,1.8
		c-0.2,0.8-0.7,1.2-0.7,1.2s-1-0.3-1,0.7s0,0.7,0,1.5c0,0.8-0.3-0.8,0,0.8c0.3,1.7,1,1,1.5,2.1c0.5,1.2,0.5,0.7,0.5,1.2
		c0,0.1,0,0.1,0,0.1v0.4c0,1.2,0,1.3-0.7,2.8c-0.7,1.5-1.2,1.2-0.7,2.3c0.5,1.2,1,0.7,1.7,1.8c0.7,1.2,1,1.3,0.5,2
		c-0.5,0.7-1.3,0.5-1.7,1.5c-0.3,1-0.3,1-0.3,1s-0.3,0.2-0.2,1.2c0.2,1-0.2,0.8,0.2,1.5c0.3,0.7-0.5,0,0.5,1.2
		c1,1.2,1.8,1.2,1.3,1.7s-0.5,0.5-0.5,0.5s-0.2,0.3-0.5,1c-0.3,0.7-1.3,0.8-1.3,0.8l-0.4-0.4c0,0.5-0.2-0.2-0.2-0.2l0.2,0.2
		c0-0.2-0.1-0.6-0.2-1.4c-0.5-2.6-0.7-4.5-0.7-4.5s-0.8-1.3-0.8-2c0-0.7,1-2.6,1-2.6l0.3-1.3c0,0-0.8,0.7-1.3-0.3
		c-0.5-1-0.7-1.5-0.7-1.5s0.8-0.8,1-1.3c0.2-0.5,0.5-1.8,0.5-1.8l-0.5-2l-0.7-1c0,0-0.3-0.2-0.7-0.7c-0.3-0.5-0.7-1.2-0.7-1.2
		s-0.8,0.5,0-1.3c0.8-1.8,1.5-2.5,1.5-2.5c-0.2-1,0-1.2-0.5-1.8c-0.5-0.7-0.8-1.2-0.8-1.2s-0.2-0.3-0.3-0.8
		c-0.2-0.5-0.7-1.7-0.7-1.7l-0.2-1.5v-0.7c0,0-0.2-0.2,0.5-0.8c0.7-0.7,1.3-2.1,1.3-2.1s0,0,0.3-0.4h-47.1c0.4,0.2,0.6,0.4,0.9,0.7
		c0.7,0.8,2.3,2.1,2.3,2.1s1.5,0.8,2.3,1.5c0.8,0.7,0.3,0.2,2.1,1.3c1.8,1.2,3.3,1.5,3.6,2c0.3,0.5,1.3,0.8,1.3,0.8s0,0.2,0.7,0.8
		c0.7,0.7,1.2,1,1.2,1l1.2,0.7c0,0,0,0,1,0.7c1,0.7,1,0.7,1,0.7s0.8,0.7,1.2,1.3s0,0.8,0.5,1.3c0.5,0.5,1.3,1.7,1.3,1.7
		s-0.2,0.3,0.5,1.2c0.7,0.8,0.2-0.3,0.7,0.8c0.5,1.2,0.5,1.2,0.5,1.2l-1.5-0.3c0,0-4.3-2.1-4.8-2.5c-0.5-0.3-1.8-0.8-2.6-1.3
		s-1.2-0.5-2.3-1.2s-1.8-0.8-1.8-0.8s-0.7-0.2-2-0.2s-2.6-0.5-2.6-0.5s-1.3-0.5-2.5-1s-1.3-0.5-2-0.8c-0.7-0.3-1.8-1-1.8-1
		s-0.7-0.7-1.2-0.8c-0.5-0.2-0.7-0.2-1.2-0.2s-0.5,0.2-1-0.2s-1.2-0.7-2.3-1c-1.2-0.3-1.2-1.5-1.2-0.3s0,0.8,0.3,2.3
		c0.3,1.5,0.8,2.1,0.8,2.1l0.7,1.7c0,0-0.3-1,0.7,1.5c1,2.5,0.7,1.5,1,2.5c0.3,1,0.3,0,0.5,1.7c0.2,1.7,0.2,0.3,0.2,1.7
		c0,1.3,0.2,0.5,0,1.3c-0.2,0.8-0.3,0.5-0.3,1.3s0.2,1.7,0.2,1.7s0.5,0.5,0.5,1.5v0.1c0,0.2,0,0.2,0,0.2v0.7c0,2-0.7,5-0.5,6.1
		c0.2,1.2,0.2,1.5,0,3c-0.2,1.5-0.5,1.8-0.7,2.6c-0.2,0.8-0.5,1.8-0.5,1.8l-1.5,3.3l-1.3,1l-0.7,1l-0.7-0.3l-1.5-2
		c0,0-2-0.7-1.8-1.7c0.2-1-0.2-2-0.5-2.8c-0.3-0.8-1.2-2.1-1.3-3c-0.2-0.8-0.7-1.2-0.7-2.1s-0.2-1.8-0.2-1.8s0.7-0.5,0.7-1.2
		s-0.2-1.2-0.5-2s-1-1.7-1-2.1s-0.2-0.7-0.2-1.2c0-0.5-0.2-1.3-0.3-1.8c-0.2-0.5-0.5-1.2-0.5-1.2s-0.3-0.5-0.2-1.3
		c0.2-0.8,0.2-1.3,0.2-1.8s0-0.5,0-0.5s0.3-0.2-0.5-2s-1.2-2-1-2.5c0.2-0.5,0.2-0.7,0.2-1.8s0-1.2,0-1.2v-1.3l0.7-0.8l0.7-1.3
		c0,0-3.8,3.6-5,4.8c-1.2,1.2-2.1,1.7-3.3,2.5c-1.2,0.8-2.8,2.6-2.8,2.6s-1,1-1.7,1.3c-0.7,0.3-1.8,0.8-2.6,1.2
		c-0.8,0.3-1.8,1-1.8,1s-0.2,0.2-0.8,0.5c-0.7,0.3-2.5,0.5-2.8,1.2c-0.3,0.7-1.8,0.8-1.8,0.8l-1.2,0.3c0,0-1.2,1.2-0.7,0
		c0.5-1.2,0.5-1.8,1.3-2.5c0.8-0.7,0.7-0.5,1.5-1.5s0.7-1.2,1.3-2.1c0.7-1,0.7-2.3,1.7-2.8s0.5-0.2,2.3-1.5c1.8-1.3,1.8-3.3,2.6-4.6
		s0.8-3,3-4c2.1-1,3.3-1.8,4.3-2.5c1-0.7,2.6-1.7,3.3-2c0.4-0.2,1.2-1,1.7-1.7H587c-1.1,1.2-1.6,1.3-1.9,1.7
		c-0.3,0.5-0.2,0.3-1.5,1.3c-1.3,1-1,0.8-1.8,1.5c-0.8,0.7-3.5,2.1-3.5,2.1s-0.7,0.3-1.5,1s-2.1,1.8-2.1,1.8l-0.7,0.7
		c0,0,0.3,0.5-1,0.7c-1.3,0.2-3.1,0.3-3.1,0.3s-0.7-0.3-1.2,0.5s-0.8,1.2-1.5,1.3c-0.7,0.2-0.7-0.7-1.3,0.3c-0.7,1-1.2,1-1.2,1
		l-2.6,0.5c0,0,0.3,0-1.2,0.5c-1.5,0.5-1.5,0.5-1.5,0.5l2.8-2.8l0.5-1.5c0,0-2.6,1.2,0.2-0.7c2.8-1.8,2.1-1.5,3.5-2.3s1.5-1.3,2-2
		c0.5-0.7,0.8-1.5,1.3-1.7c0.5-0.2,0.7-0.3,1.2-0.7s0.5-0.2,1.2-0.8c0.7-0.7,0.7-0.7,0.7-0.7s-0.5,1.3,1.3-1.2
		c0.4-0.6,0.8-1.1,1.1-1.6h-22.2c-0.3,0.2-0.7,0.4-0.8,0.7c-0.3,0.7,0-0.2-0.3,0.7s-0.8,1.5-0.8,1.5s-0.7,1-0.7,1.5s-1,1-1,1
		s-0.3,0.3-0.7,1c-0.3,0.7-0.3,0.7-0.3,0.7s-1.3,0.5-1.3,1.2c0,0.7-0.5,1.3-0.5,1.3s0,0.7-1,0.2c-1-0.5-1.7-0.7-1.7-0.7l-1.3-0.8
		l-0.8-1l-1-1.3l-1-0.8l-0.5-0.8l-1-0.7l-1.2-0.5c0,0-1.3,0.8-0.2-0.7c1.2-1.5,1-1.5,1.3-2c0.1-0.1,0.1-0.3,0.1-0.4h-93.5l-1.5,1.2
		l-0.2,5.6l1.4,1.2l10.2-0.1l-0.2,28.5H313.8v7.4h0.8l0.8,1h8.6c0,0,1.2,341.2,1.2,347s-0.4,8-1.3,8.9s-2.7,1.7-2.8,5.3
		c-0.1,3.6,0.2,25.3,0.2,25.3s0.2,1.5,2.9,1.5c2.6,0,4.9-0.9,4.9-0.9s141.3,5,295.3,5s296.5-5.9,296.5-5.9s1.2,1,4.6,1
		s4.4-0.2,4.5-1.7s0-24.9,0-26.9c0-2.1-5.2-2.5-5.1-9.2c0.1-6.8,0.2-348.4,0.2-348.4l10.1-0.2l2.4-0.8V241L799,240.6z"/>
</g>
<g id="FireplaceLabel">
	<g>
		<path class="st1" d="M956.2,232.6H725.5c-4.9,0-8.9-4-8.9-8.9v-82.3c0-4.9,4-8.9,8.9-8.9h230.6c4.9,0,8.9,4,8.9,8.9v82.3
			C965.1,228.6,961.1,232.6,956.2,232.6z"/>
		<text transform="matrix(1 0 0 1 737.4489 172.6996)" class="st2 st3 st4">Fireplace</text>
		<text transform="matrix(1 0 0 1 737.4487 208.9012)" class="st2 st5 st6">$549.95</text>
	</g>
</g>
<g id="Couch">
	<path class="st0" d="M0,399.1v402.3l129.4,1.1l9.9,63.6h28.4l4.2-2.6l8.6-59.9h3.1V802l12.3-16.5v-4.4l55.3-68.9l1.1,8.6l20.9,0.4
		l3.7-3.1l7.5-46.9l8.1-7c0,0,3.1-14.1,3.3-37c0.2-22.9,1.3-97.8,1.3-116.7c0-18.9-2.2-26.2-21.6-28.4s-29.7-2-72-2
		s-120.2,1.1-120.2,1.1s-1.3-16.1-3.3-30.6c-2-14.5-5.7-31.3-12.3-37.7s-15.2-9.5-18.1-9.5c-2.9,0-7.9-0.4-7.9-0.4
		s-6.8-4.4-10.3-6.2c-3.5-1.8-9.7-2.4-14.3-1.8c-4.6,0.7-8.4,1.1-11,2.4S0,399.1,0,399.1z"/>
</g>
<g id="CouchLabel">
	<g>
		<path class="st1" d="M300.6,394.2H69.9c-4.9,0-8.9-4-8.9-8.9v-82.3c0-4.9,4-8.9,8.9-8.9h230.6c4.9,0,8.9,4,8.9,8.9v82.3
			C309.5,390.1,305.5,394.2,300.6,394.2z"/>
		<text transform="matrix(1 0 0 1 81.8335 334.2248)" class="st2 st3 st4">Tan Vinyl Couch</text>
		<text transform="matrix(1 0 0 1 81.8333 370.4264)" class="st2 st5 st6">$299.95</text>
	</g>
</g>
<g id="Chair">
	<path class="st0" d="M1200,762l-52.7-3.3l-6.2,55.9l-28.4-1.3l-8.4-59.7c0,0-0.7,1.3-3.3,1.3c-2.6,0-4.8-2.4-4.8-2.4
		s-4.8-58.3-4.4-111.2c0.4-52.8,1.3-89,2.6-96.7c1.3-7.7,8.4-11.2,13.7-12.3c5.3-1.1,29.7-1.5,29.7-1.5s0.9-14.5,1.8-20.5
		c0.9-5.9,4-8.1,7.9-9.9c4-1.8,14.1-1.8,24-1.8c9.9,0,28.5,0,28.5,0V762z"/>
</g>
<g id="ChairLabels">
	<g>
		<path class="st1" d="M1098.5,484.3H867.9c-4.9,0-8.9-4-8.9-8.9v-82.3c0-4.9,4-8.9,8.9-8.9h230.6c4.9,0,8.9,4,8.9,8.9v82.3
			C1107.4,480.3,1103.4,484.3,1098.5,484.3z"/>
		<text transform="matrix(1 0 0 1 879.777 424.3916)" class="st2 st3 st4">Tan Vinyl Chair</text>
		<text transform="matrix(1 0 0 1 879.7769 460.5932)" class="st2 st5 st6">$209.95</text>
	</g>
</g>
<g id="BlueLeafCarpet">
	<path class="st0" d="M1141.1,814.6l-28.4-1.3l-8.4-59.7c0,0-0.7,1.3-3.3,1.3c-2.6,0-4.8-2.4-4.8-2.4s-2.3-28-3.6-62.8l-810.5-4
		l-5.2,32.5l-3.7,3.1l-20.9-0.4l-1.1-8.6l-55.3,68.9v4.4L183.5,802v1.5h-3.1l-8.6,59.9l-4.2,2.6h-28.4l-9.9-63.6L0,801.4V890h1200
		V762l-52.7-3.3L1141.1,814.6z"/>
</g>
<g id="BlueLeafCarpetLabel">
	<g>
		<path class="st1" d="M764,648.8H525c-4.9,0-8.9-4-8.9-8.9v-82.3c0-4.9,4-8.9,8.9-8.9H764c4.9,0,8.9,4,8.9,8.9v82.3
			C772.9,644.8,768.9,648.8,764,648.8z"/>
		<text transform="matrix(1 0 0 1 536.9518 588.8683)" class="st2 st3 st4">Blue Leaf Carpet</text>
		<text transform="matrix(1 0 0 1 536.9517 625.0699)" class="st2 st5 st6">$295.95</text>
	</g>
</g>
</svg>
