<?xml version="1.0" encoding="utf-8"?>
<!-- Generator: Adobe Illustrator 23.0.6, SVG Export Plug-In . SVG Version: 6.00 Build 0)  -->
<svg version="1.1" xmlns="http://www.w3.org/2000/svg" xmlns:xlink="http://www.w3.org/1999/xlink" x="0px" y="0px"
	 viewBox="0 0 1200 727" style="enable-background:new 0 0 1200 727;" xml:space="preserve">
<style type="text/css">
	.st0{fill:none;}
	.st1{fill:#7C8A4F;stroke:#FFFFFF;stroke-width:5;stroke-miterlimit:10;}
	.st2{fill:#FFFFFF;}
	.st3{font-family:'OpenSans-Bold';}
	.st4{font-size:26px;}
	.st5{font-family:'OpenSans';}
	.st6{font-size:22px;}
</style>
<g id="RangeSink">
	<g id="Stove_and_Sink">
		<path class="st0" d="M400.3,456.5l1-0.4c0,0,0-2.4,0-6.6l-1.4,0.1L400.3,456.5z M337,446.9l-6.7,29.6l20.1-1.6l1-23.8l-15.7,1.3
			L337,446.9z M402,313.4c-0.2-5.2-1.1-7.3-4.1-7.6c-3-0.3-34.5-2.5-37.3-2.8c-2.9-0.2-4.7-2.1-4.6-3.9s0.1-6.4,0-11.1
			s-2.9-5.1-4.1-5.1s-5,0-8.6,0.2s-2.8,2.2-2.8,2.2s-7.9-1.6-21.3-3.7c1.6-2.1,3.6-4.8,4.6-6.5c1.8-3-1.3-2.6-2.8-1
			c-0.9,1-3.4,4.4-5.3,6.9c-4.7-0.7-9.9-1.4-15.7-2.1V277l-3-0.7c0,0,0.3-16.3,0.3-25.3c0-8.9,2.6-14.9,6.4-14.9s5.1,13.4,5.1,13.4
			s1.3,0.5,2.8,0.5s2.6-0.7,2.6-0.7s0.5-3.8-0.8-9.6s-5.3-8.9-10.2-8.8c-5,0.2-12.1,4.3-12.1,13.5s-0.7,32.2-0.7,32.2l-2.2,0.8
			c-10.2-1.1-21.6-2-33.8-2.6v1.2c0,0,5.3,4.5,6.6,6.4c1.3,2,1.8,3.5,1.8,5.3s-4,8.1-4,8.1l-0.2,1.8l-1.5,11.4l-5.8-2.8
			c0,0-2,1.8-2.8,2.5s-1.3,1.2-2.5,1.3c-1.2,0.2-18.2,0-18.2,0l-0.2-1l-7.3-1.5l-1.3-27.4l1.9-6.2c-60.9,0.5-130.9,15-130.9,15
			s-1.1-0.4-1.8-0.7c-0.7-0.2-4.8-0.4-6.3-0.4c-1.4,0-3.7,0.8-3.6,4.3s1,167.3,1,167.3l9.6,5.4l0.1,23.7l4.1,2l8.5-0.2l3.5-5
			l0.1-2.1l15.6,6.1l-0.1,4.4l1.7,10.5l4,2l10.1-0.8l4.2-11.3v-3l167.4-13.3l5.2-24l-24.3,2l-23.1-6.6l0.1-40.8l16.1-0.4l0.4-2.2
			l-0.4-0.9l3.7,0.4l2.4,1.3l1.1,1.1l29.1-1.4V404c0-6.6,8.1-14.1,13.9-14.3c4.6-0.2,23.1-1.5,30.2-2l-0.3-34.8
			c0,0-12.8-1.5-14.5-1.5c-1.8,0-5.3-2.6-5.3-5.5s5.3-4,5.3-4l53.7-2.4C402,325,402,314.7,402,313.4z M259.8,287.3
			c-0.2-2.6-4.6-5.9-4.6-5.9l0.2,8.9l2,2.5C257.3,292.8,259.9,290,259.8,287.3z"/>
	</g>
</g>
<g id="RangeSinkLabel">
	<g>
		<path class="st1" d="M284.1,222.1H53.4c-4.9,0-8.9-4-8.9-8.9v-82.3c0-4.9,4-8.9,8.9-8.9h230.6c4.9,0,8.9,4,8.9,8.9v82.3
			C293,218.1,289,222.1,284.1,222.1z"/>
		<text transform="matrix(1 0 0 1 65.3308 162.1484)" class="st2 st3 st4">Range and Sink</text>
		<text transform="matrix(1 0 0 1 65.3306 198.3501)" class="st2 st5 st6">$475.95</text>
	</g>
</g>
<g id="Refrigerator_1_">
	<g id="Refrigerator">
		<path class="st0" d="M508.9,469.8l24.9,1.8l1.8-34.8l-18.3-2.4L508.9,469.8z M493.5,446.2l2.8-11.8l-2.7,0.2L493.5,446.2z
			 M647.4,202.5c-3.6,0-20.3-0.7-22.5-0.8s-3.6,1-3.6,1v0.8l-131.1,2c0,0-7.3-0.7-8.4-0.8c-1.2-0.2-3.8,0.8-4,3
			c-0.1,1.1-0.2,64.6-0.2,128.6l67.4-3c-2-1.3-4.2-3.5-4.4-6.8c-0.3-6.1,7.3-9.7,7.6-10.6c0.3-0.8-1.3-3.8-2-5s-1.2-2.5-0.2-2.5
			s6.1-0.7,6.1-0.7l4.1-0.2c0,0,1.2-0.3,1.7-0.3s0.7,0.3,0.7-0.5s-1-1.8-1-1.8l-0.3-1.2c0,0-0.7-0.5,0.7,0c1.3,0.5,1.7,0.3,2.3,0.5
			c0.7,0.2,0.7,0.2,0.7,0.2l0.5-0.8l-1-3.8l-1-0.2c0.8-1.5,1-2,1-2.5s-0.2-1.2-0.2-1.2l-0.5-0.8c1-0.3,0.2-1.5,1.8-0.5
			c1.7,1,1.2,1,1.7,1s0.8,0.2,1.3,0s-0.3-0.2,1.2-0.5s1.5-0.3,1.5-0.3c-0.1,0-0.1,0-0.2-0.1c0.1,0,0.2,0.1,0.2,0.1
			c1.2,0.5,1.7,0.7,1.7,0.7l1-0.3c0.3-1,0.8-1.7,0.8-1.7s0.5-0.3,1-0.5s-0.2-0.3,0.5-0.2s0.3-0.2,0.8,0.7s0.5,0.2,0.5,0.8
			c0,0.7,0.2-0.5,0,0.7s0,0.2-0.2,1.2s-1.2,0.5,0.3,1.2s1.5,0.7,1.5,0.7s-0.7-0.7,0.8,0.2c1.5,0.8,1.5,0.8,1.5,0.8
			c1.2,1.5,1.2,0.7,1.2,1.5s0.5,0.3,0,0.8s-1.2,0.5-1.2,0.5H576l-0.7,0.7c0,0,0.3-0.3-0.7,0.5s-0.7-0.2-1,0.8s-1.3,0.3-0.3,1
			s2.3,0.8,2.3,0.8l0.8-0.2l0.8-0.3l1.3,0.2c0.5,1.5,0.5,0.7,0.5,1.5s0.2,0.2,0,0.8c-0.2,0.7-0.2,0.7-0.2,0.7s0-0.7-0.7,0.3
			s-0.7,0-0.7,1s0,1,0,1s1,0,2,0s1.8,0,1.8,0s1-0.3,3.5,0.5s3.5,1.7,3.1,2.6c-0.3,1-1.7,2.3-1.7,2.3s3.6-0.3,8.4-0.2
			c4.8,0.2,7.9,0.5,8.8,1.3c0.8,0.8,1,1.3,0.8,2s-0.3,1.5-0.3,1.5l8.4-0.3c0,0-0.5-3.8-0.3-6.1c0.2-2.3,4.3-9.4,6.6-12.6
			c2.3-3.1,3.5-4,4.1-4.3c0.7-0.3,0.3-0.2,2.1-1s3.8-1.7,4.5-2s2.6-1.5,2.6-2s-1.1-1.3-1.2-2.6c-0.1-1.2,2-1.7,3.8-1.7
			c1.8,0.1,4.6,0.3,4.9,1.3s-0.7,1.7-0.7,2.2s-0.1,1.9,1.1,2.1c1.2,0.2,7.3,2.9,9.3,4c0.5,0.3,1.5,1.3,2.5,2.6
			c0.2-50.3,0.3-93.1,0.3-94.2C652.1,203.8,651,202.5,647.4,202.5z M566.6,294.7C566.7,294.7,566.7,294.8,566.6,294.7
			C566.7,294.8,566.7,294.7,566.6,294.7z M626.5,477.3l24.8-15.3c0,0,0.1-15.9,0.1-39.9l-37.7,3L626.5,477.3z M575.7,436.4l1.8,38.4
			l27.9,2l-9.8-42.2L575.7,436.4z M556.6,473.3l0.3-22.6l-1.6,22.5L556.6,473.3z"/>
	</g>
</g>
<g id="RefrigeratorLabel">
	<g>
		<path class="st1" d="M672.2,158.1H441.6c-4.9,0-8.9-4-8.9-8.9V66.9c0-4.9,4-8.9,8.9-8.9h230.6c4.9,0,8.9,4,8.9,8.9v82.3
			C681.2,154.1,677.2,158.1,672.2,158.1z"/>
		<text transform="matrix(1 0 0 1 453.4863 98.1445)" class="st2 st3 st4">Refrigerator</text>
		<text transform="matrix(1 0 0 1 453.4861 134.3461)" class="st2 st5 st6">$299.95</text>
	</g>
</g>
<g id="Mirror_1_">
	<g id="Mirror">
		<path class="st0" d="M828.7,337.3c0,0,7.7,1.8,7.7,4.4s-2.2,3.7-2.2,3.7s1.2,0.8,2.2,2.9c7.5-4.3,14.4-9.9,20.6-16.6
			c0.6-65.3,1.2-155.6,1.2-157.2c0-2.5,1.3-4.5,4.3-4.3c0.2,0,0.5,0,0.9,0c-15.8-20.8-37.9-33.8-62.3-33.8
			c-47.9,0-86.7,49.5-86.7,110.6c0,33.9,12,64.2,30.8,84.5L828.7,337.3z"/>
	</g>
</g>
<g id="MirrorLabel">
	<g>
		<path class="st1" d="M959.5,118.1h-286c-4.9,0-8.9-4-8.9-8.9V26.9c0-4.9,4-8.9,8.9-8.9h286c4.9,0,8.9,4,8.9,8.9v82.3
			C968.5,114.1,964.5,118.1,959.5,118.1z"/>
		<text transform="matrix(1 0 0 1 685.4863 58.1445)" class="st2 st3 st4">Circle Acrylic Mirror</text>
		<text transform="matrix(1 0 0 1 685.4861 94.3461)" class="st2 st5 st6">$159.95</text>
	</g>
</g>
<g id="Armoire_1_">
	<g id="Armoire">
		<path class="st0" d="M1186.4,159.4c0,0-71-2.8-74.6-2.8s-5.3,3.3-5.3,3.3l-193.9,12.2c0,0-47.1-1.7-50-1.8c-3-0.2-4.3,1.8-4.3,4.3
			s-1.5,212.5-2,222.9c-0.5,10.4-10.4,17.8-14.4,18.7c-4,0.8-14.5,0.8-14.5,0.8s1.2,13.7,0.8,29.6c-0.3,15.9-2.1,41.6-2.1,41.6
			l1.7,0.5c0,0-0.8,2-0.3,2.6c0.5,0.7,2.3,1.5,2.3,1.5l-0.5,34.3l7.8,2.3l10.1-0.3l7.6-11.9l188.6,39l-0.5,2.6l5.3,17.3l11.4,2.3
			l8.8-1.2l5.1-15l-0.2-4.5l58.6-8.8l8.4,12.7l11.4,1.7l8.4-1.5v-33.4l16.5-2.6l10.9-364.6L1186.4,159.4z M934.4,505.3l-98.9-20.7
			l-0.2-3.5l2.2-43.2l36.6-0.4l61.9,10.1L934.4,505.3z M1060.1,527.9l-105.2-21.4l2.2-50.6l42.1,0.4l62.8,9.5L1060.1,527.9z"/>
	</g>
</g>
<g id="ArmoireLabel">
	<g>
		<path class="st1" d="M1122.1,141.1H891.5c-4.9,0-8.9-4-8.9-8.9V49.9c0-4.9,4-8.9,8.9-8.9h230.6c4.9,0,8.9,4,8.9,8.9v82.3
			C1131.1,137.1,1127.1,141.1,1122.1,141.1z"/>
		<text transform="matrix(1 0 0 1 903.3864 81.1445)" class="st2 st3 st4">Armoire</text>
		<text transform="matrix(1 0 0 1 903.3862 117.3461)" class="st2 st5 st6">$445.95</text>
	</g>
</g>
<g id="Stools_1_">
	<g id="Stools">
		<path class="st0" d="M624.8,528.4l13.8-1.5l-24.9-101.7l-117.5,9.2l-2.8,11.8l-0.3,45.8c3.8-0.5,7.4-1,10.8-1.5l13.3-56.2
			l18.3,2.4l-2.5,50.1c10.6-1.3,17.8-2.2,20.4-2.4c0.4,0,0.8,0,1.2-0.1l2.3-33.8l-0.5,33.8c2.6-0.1,4.6-0.1,7.5,0.4
			c2,0.3,8,1.6,14,2.9l-2.4-51.3l19.8-1.8l14,60.3c0,0,0,0,0.1,0c4.8,1.5,15.2,5.1,16.3,6.2s0,6.4-0.4,9.9
			C625.2,513.2,624.9,520.9,624.8,528.4z M332.8,389.7c-5.7,0.2-13.9,7.7-13.9,14.3c0,6.6,0,10.1,0,10.1s-5.5,1.3-5.3,6.4
			c0.3,6.8,5.7,7.7,5.7,7.7L288,573.1l5.5,4.4l13.4-1.1l5.5-21.4l33.5,13l-0.7,30.2l5.9,2.9l11.7-0.2l1.8-1l-1.7-212.2
			C356,388.2,337.4,389.5,332.8,389.7z M346.3,555.9l-31.5-11.7l1.1-5.9l32.1-4L346.3,555.9z M348.2,524.4l-29.5,3.3l18.3-80.8
			l14.5,2.6L348.2,524.4z M392.7,420.7l1.1,118.7l32.4,11.2l15.4-0.8l-1.8-45.6l1.1-2.2v-1.5l2-0.9c0,0,2.3-0.4,6.2-1l-15.4-70.3
			L392.7,420.7z M422.7,540.1l-18.3-7l-4.4-83.4l16.3-0.7l20.5,90.3L422.7,540.1z"/>
	</g>
</g>
<g id="StoolsLabel">
	<g>
		<path class="st1" d="M684.1,329.1H388.2c-4.9,0-8.9-4-8.9-8.9v-82.3c0-4.9,4-8.9,8.9-8.9h295.9c4.9,0,8.9,4,8.9,8.9v82.3
			C693,325.1,689,329.1,684.1,329.1z"/>
		<text transform="matrix(1 0 0 1 400.0863 269.1445)" class="st2 st3 st4">Kitchen Island Stools</text>
		<text transform="matrix(1 0 0 1 400.0861 305.3461)" class="st2 st5 st6">$179.95</text>
	</g>
</g>
<g id="Baskets">
	<g id="Storage_Baskets">
		<path class="st0" d="M609.6,494.9c-4.8-1.5-13-3.5-17.8-4.4s-23.8-5.1-27.7-5.7s-6.4-0.4-10.6-0.2c-4.2,0.2-20.5,2.4-43.8,5.3
			c-4.8,0.6-10.5,1.3-16.4,2.2l-0.5,86.8c0.1,0,0.3,0.1,0.4,0.1c0,0,0,0,0.1,0c0.2,0,0.4,0.1,0.6,0.1c0.1,0,0.1,0,0.2,0
			c0.2,0,0.3,0.1,0.5,0.1c0.1,0,0.2,0,0.3,0c0.1,0,0.3,0,0.5,0.1c0.1,0,0.2,0,0.3,0c0.2,0,0.3,0,0.5,0.1c0.1,0,0.2,0,0.3,0
			c0.2,0,0.3,0,0.5,0.1c0.1,0,0.2,0,0.3,0c0.2,0,0.4,0,0.6,0.1c0.1,0,0.1,0,0.2,0c0.3,0,0.6,0.1,0.8,0.1c0.1,0,0.1,0,0.2,0
			c0.2,0,0.5,0,0.7,0.1c0.1,0,0.2,0,0.3,0c0.2,0,0.4,0,0.5,0s0.2,0,0.3,0c0.2,0,0.3,0,0.5,0c0.1,0,0.2,0,0.3,0c0.2,0,0.3,0,0.5,0
			c0.1,0,0.2,0,0.3,0c0.2,0,0.3,0,0.5,0c0.1,0,0.2,0,0.2,0c0.2,0,0.5,0,0.7-0.1c3.7-0.4,32.1-4.4,55.5-7.9
			c23.3-3.5,48.2-6.6,56.1-7.3c7.9-0.7,7.3-2,8.8-4.4s1.3-11.2,0.9-19.4c0-0.3,0-0.7-0.1-1.1c0-0.1,0-0.2,0-0.3c0-0.4,0-0.8,0-1.2
			l0,0c0-0.4,0-0.8,0-1.3c0-0.1,0-0.2,0-0.3c0-0.5,0-0.9,0-1.4l0,0c0-0.5,0-1,0-1.5c0-0.1,0-0.1,0-0.2c0-0.5,0-1.1,0-1.6l0,0
			c0-0.5,0-1.1,0-1.7c0,0,0,0,0-0.1c0-8,0.3-16.8,0.6-19.1c0.4-3.5,1.5-8.8,0.4-9.9C624.8,500,614.4,496.5,609.6,494.9z
			 M442.9,499.5l-2,0.9v1.5l-1.1,2.2l2,51.8l17,5.6l-0.4-64.4C449.3,498.5,442.9,499.5,442.9,499.5z M837.5,437.9l-2.2,43.2l0.2,3.5
			l98.9,20.7l1.5-57.7L874,437.5L837.5,437.9z M999.1,456.4L957,456l-2.2,50.6L1060,528l1.8-62.1L999.1,456.4z M313.7,420.5
			c-0.2-5.1,5.3-6.4,5.3-6.4s0-2.5,0-7.3l-29.1,1.4l-1.1-1.1l-2.4-1.3l-3.7-0.4l0.4,0.9l-0.4,2.2l-16.1,0.4l-0.1,40.8l23.1,6.6
			l24.3-2l5.6-26C319.4,428.2,314,427.3,313.7,420.5z M335.8,452.4l15.7-1.3l0.1-1.5l-14.5-2.6L335.8,452.4z"/>
	</g>
</g>
<g id="BasketsLabel">
	<g>
		<path class="st1" d="M740.6,417.2H440.5c-4.9,0-8.9-4-8.9-8.9V296c0-4.9,4-8.9,8.9-8.9h300.2c4.9,0,8.9,4,8.9,8.9v112.2
			C749.6,413.2,745.6,417.2,740.6,417.2z"/>
		<text transform="matrix(1 0 0 1 452.3641 327.3155)"><tspan x="0" y="0" class="st2 st3 st4">Rectangular Storage </tspan><tspan x="0" y="31.2" class="st2 st3 st4">Baskets</tspan></text>
		<text transform="matrix(1 0 0 1 452.3639 394.5172)" class="st2 st5 st6">$99.95</text>
	</g>
</g>
<g id="KitchenIsland">
	<path class="st0" d="M703.7,471.3c0.3,1.7-2,11.6-2,13.4s-0.5,4.8-0.5,6.4s-0.7,2.1,0.7,2.6s-0.3,1.3-0.3,1.3s-0.2,0.3,1.3,0.2
		c0.7-0.1,1.3-0.1,1.8,0l-0.1-27.4c-0.1-0.2-0.2-0.4-0.2-0.5C703.8,465.9,703.3,469.7,703.7,471.3z M834.2,345.4
		c0,0,2.2-1.1,2.2-3.7s-7.7-4.4-7.7-4.4l-129.5-8.6l-3.3-0.1c-0.6,2.6-1.7,6.8-2.5,7.8c-0.9,1.2-3.3,3.1-4.2,3.4s-5.9,0.2-10.8,0.3
		c-4.9,0.1-7.2-0.4-7.2-0.4s-6.4,0.6-17.9,0.7s-27.4,0-27.4,0s-4.1,0.3-10.2,0.5c-6.1,0.2-8.3-0.1-8.3-0.1l-0.8-0.7
		c0,0-7.7,0.2-10,0s-5.4-0.2-6.3-0.2s-6.6,0-8.5,0.1s-8.6,0-17-0.2c-8.1-0.2-13.9-0.8-15.2-1.8s-1.2-3-1.2-3s-1.6-0.5-3.4-1.7
		l-196.7,8.6c0,0-5.3,1.1-5.3,4s3.5,5.5,5.3,5.5s14.5,1.5,14.5,1.5l2.2,268.6l7.3,3.1l13-0.2l8.8-14.8l-0.7-24.4l65.4,26.2L459,646
		l3.3,20.7l10.1,4.4l14.5-2.2l5.5-19.4l0.4-50l184.7-24l1.3,4.6l8.1,2.6l9.7-1.1l4.2-9l69.4-10.6l18.7,4.6l-0.4,30.8l10.1,17.8
		l9.2,2l11-2l5.3-246.2c0,0,1.8-1.8,4-2.6c2.2-0.8,8.6-2,9.2-10.3C838.1,347.8,834.2,345.4,834.2,345.4z M441.8,555.9l-0.7-5.8
		l-14,0.7l-33.3-11.4l-1.1-118.7l65.4,12.1l0.8,128.7L441.8,555.9z M789.3,523.5l-68.8-14.3c0.2,1.2,0.3,2.4,0.3,3.7
		c0.3,6.9-0.8,13-5.4,20.5s-11.7,16-11.7,16l-2-0.2c0,0,0.2-1.3,0.8-2.3c0.7-1,1.5-1.8,1.8-3.1s-0.8,0-2.1-0.2s-1.5-0.3-3.6-0.8
		s-4.8-1.2-8.1-0.8c-3.3,0.3-10.1,2.5-12.1,3.1c-2,0.7-0.8,1.3-1.3,2.5s-0.5,3.6-0.5,4.5s-1.3,0.7-2.3,0.2s0.2-3.5,0-4.1
		c-0.2-0.7-2.1-2.1-3.5-2.6c-1.3-0.5-1.7-1.5-2.1-2c-0.5-0.5-2-1.2-3.1-1.8c-1.2-0.7-3.8-3-5.6-3.6s-2.8-0.2-4.1-0.3
		c-1.3-0.2-3.3,0.3-3.3,0.3s1,2.1,1.8,3s0.3,1.3-0.5,1.7c-0.8,0.3-1.5-0.3-2.3-1.5s-4.3-8.1-5.8-11.1c-0.5-1.1-1.3-2.3-2-3.8
		l-18.8,2.1c0,4.6,0,9.2,0.2,12.3c0.4,8.1,0.7,17-0.9,19.4c-1.5,2.4-0.9,3.7-8.8,4.4c-7.9,0.7-32.8,3.7-56.1,7.3
		c-23.3,3.5-51.7,7.5-55.5,7.9c-3.2,0.4-8.6-0.4-11-0.9l0.9-144.2l182.1-14.3l-0.2,30.8c2.8-0.6,5.7-0.9,8.3-0.7
		c5.8,0.3,10.7,2.1,10.7,2.1s0.3-4,0.2-6.4c-0.2-2.5,0.5-5.9,0.7-7.9s1,1,1,2.6s0.7,0.2,0.7-0.3s0.3-3,0.3-4.1s0.5-1.5,0.7-1
		s1.2,7.9,1.2,9.4s0.7,10.9,0.7,10.9s0.3,0.8,0.8,1.5s1.5,0.2,1.5-1.5s0-4.1,0.3-6.6s1,3,1.2,4.6c0.2,1.7,0.2,5.9,0.2,5.9
		s0.1,0.3,0.7,1.5l-0.2-43.7l86.8-6.6L789.3,523.5z M660.8,334.9c3.6,0.7,9.1,2.1,9.1,2.1s-2.9-3.7-3-8.4v-0.7l-13.1,0.6
		c-1.2,1.1-2.1,2-2.5,2.5c-1.1,1.2-2.7,3.4-2.7,3.4S657.2,334.2,660.8,334.9z M684.4,453.3c-2.9,0-6,0.6-8.8,1.7l-0.1,10.5
		c0.7,0.5,0.9,0.6,2.3,1.2c1.8,0.8,2,0.2,3,1.3c1,1.2,0,1.2,1.5,2s0.5,0.3,1.5,0.8s1,0.5,2,1.3s1.3,1.5,1.7,2s0.5,2.8,0.7,4.8
		s0,2.8,0.2,3.3s0.8,1.8,0.8,1.8s1,0.5,1-0.5s-0.3-2.6-0.2-4.3c0.2-1.7,0.5-2.3,0.2-3.5s-0.8-2.6-0.8-2.6l0.2-1.2l0.7-0.8l-0.2-1.2
		l-0.5-2c0,0-0.7-0.3,0-2.3s0.3-2.1,0.2-2.6c-0.2-0.5-0.7-1.2-0.7-1.2l-1.5-2c0,0-0.7-2.3-0.3-1.8s0.7,1.2,1.7,1.8
		c1,0.7,2,1.2,2,0.3s-1-1.5,0-0.8s1.2,1.2,1.5,1.8c0.3,0.7,1.3,1,1.3,1c0.5,1.3,0.8,2.6,1,3.1s0.5-3.8,0.5-4.8s-0.3-2.5-0.3-2.5
		l0.3-1C694.9,457.1,690,453.3,684.4,453.3z"/>
</g>
<g id="KitchenIslandLabel">
	<g>
		<path class="st1" d="M650.3,294.1H419.7c-4.9,0-8.9-4-8.9-8.9v-82.3c0-4.9,4-8.9,8.9-8.9h230.6c4.9,0,8.9,4,8.9,8.9v82.3
			C659.2,290.1,655.2,294.1,650.3,294.1z"/>
		<text transform="matrix(1 0 0 1 431.5808 234.1445)" class="st2 st3 st4">Kitchen Island</text>
		<text transform="matrix(1 0 0 1 431.5806 270.3461)" class="st2 st5 st6">$524.95</text>
	</g>
</g>
<g id="GreenStripeCarpet">
	<g id="Carpet">
		<path class="st0" d="M75,564.6c0,0,8.9,6.9,11.9,8.6c3,1.7,4,2.6,9.6,4.6s7.6,3.6,7.9,4.6s8.3,5,16.2,9.2s123.9,69.7,130.8,73
			s36,17.2,40.6,20.5c4.6,3.3,36.7,20.5,40.6,23.1s14.2,5.9,16.5,6.9s4.3,2.3,5.3,3.3s6.3,8.6,6.3,8.6H0V608.2c0,0,19.2,5,36.7,3.6
			c17.5-1.3,28.1-6.3,32-8.6c4-2.3,4.3-3.3,4.6-5.6s1.7-11.2,1-12.2s0-6.9,0.7-9.2s1-4.6,0.7-5.6S75,564.6,75,564.6z"/>
	</g>
</g>
<g id="GreenStripeCarpetLabel">
	<g>
		<path class="st1" d="M351.8,545.1H42.8c-4.9,0-8.9-4-8.9-8.9V430.9c0-4.9,4-8.9,8.9-8.9h308.9c4.9,0,8.9,4,8.9,8.9v105.3
			C360.7,541.1,356.7,545.1,351.8,545.1z"/>
		<text transform="matrix(1 0 0 1 54.7347 462.1874)"><tspan x="0" y="0" class="st2 st3 st4">Nature’s Stripe Green </tspan><tspan x="0" y="31.2" class="st2 st3 st4">Carpet</tspan></text>
		<text transform="matrix(1 0 0 1 54.7346 526.389)" class="st2 st5 st6">$475.95</text>
	</g>
</g>
</svg>
