<svg xmlns="http://www.w3.org/2000/svg" viewBox="0 0 1200 717.3">
	<style>
		.sop-dining svg {
			background-image: url("images/sop-dining.png");
			background-size: 100% 100%;
			background-repeat: no-repeat;
			max-width: 1200px;
			width: 100%;
			border: 0 solid #FFFFFF;
			border-radius: 15px;
		}
	</style>
	<g id="30_Storage" class="svg-item">
		<a href="https://www.kaplanco.com/product/31672/sense-of-place-30-inch-compartment-storage?c=1%7CSO1000&linkingParam=%7B%7D">
			<path
				d="M441 375l11-2v-3l-10-1-1 6zm129-94l-1-73-1-1h-50l-2 3v3h-15v-3l-1-1h-6v4c0 1-6 2-24 2-18 1-21-1-21-1v-1h-4v2c0 1-1 4-12 4l-14-1v-2l-44 3 1 1 1 2 1 2h1l2-1h3s2 0 3-2 0 1 2 0h1l2-1 3-1h2l-1 1h-2v2s-2 0-2 2c1 1-1 1-1 1l-2 1-1 1v1l-2 1-1 2 1 1h3c2 0 0-1 1-1h4l3-1 2-1h2l2-1c1-1 0 0 0 0h2l1 1 2 1v1l-3 2h-2l-2 1h-2l-2 1h-1-1l-1 1-3 1 1 1s1 2-1 1h-1-2l-2 1h-2l-1 2-1 1-1 1 2 2-3 2h1v2l2 1 1 2 3 2h-6l1 2 3 2s1 2 3 2h2l2 1 1 1v2l1 2-3-1-1-1v-1h-3l-2 1c-1 2 1 3 1 3h2l2 2-2 3h2l1 1 3 1 1 2 1 1 2 2 3 2 2 3 4 4c2 1 1 3 1 3l-2-1-3-2-2-3-2-2-3-3-2-2-2-1-1-1h-4l1 1v2 3l3 3v2 3l-1 2v11l-2-1v-1l-1-2v-1l-1-2v-3l1-3v-1l-1-3-1-3v-4-2-1-1l-2-1c-1-2-2-1-3-2l1 3-1 1v1l2 2 1 1 1 2-2 3-1 3-1 1 1 2 1 2v2a111 111 0 001 7v10c0 2-1 1-1 1l-2 1h-2v-2l1-3v-3-3c0-2-2-3-2-3v-3l-1-2-2-4-1-1v6l1 5v8l1 3v5l1 2-1 3-1 3v11l-1 2-2-1-1-3v-2-1-2-1l-1-4-1-5-1-1-1 1 1 3v4l1 2v4h-1l-2-2v-2-2l-1-2v-1l-1-3-1-3v-1l1-2v-3-2l-1-3v-3-3l1-3 1-2-1-1-5 15-2 6v23h10l9 1 2-22 4-4 7-1 3 1v4l66 4s1-5 6-5l7 1-2 51 66-14 1-1 17-4v-59l-8-1v-6l26-3zm-180 60s5-1 11 1l11 3 1 1a3134 3134 0 0029 4l1 6h11l1-20-65-3v8zm509-16v3l47 2v-17l-47 12zm59-42l-1-82h-4l-16 2-169-1-1 2-24-1-1-2-34 1-1 3 1 69 31 1h1v-1l-2-11v-1l-1-1-1-1-1-1v-2-1l-1-2v-1l-1-1h-1v-1l-1-1h2l2 1s2-1 1-3l-2-2h-1l-1-1-3 1h-1l-2-1-1 1h-5l-1 1h-2l-1 1h-1v-1l1-1 1-1v-1l1-1 2-1h1l1-1h2l1-1h4l1-1v-1-1-1l-1-1-1-1-1-2 2-1v1h1s1 1 1-1l-2-2-1-1-2-1h-4v-1l1-1h2v-1l-1-1v-1l-1-1h4l-1-1v-1l-1-1v-1h2l2 1 2 2 1 2 1 2 2 2 1 1v1l1 1 1 2v1l2 1 1-1v-1l1-1v-2l-1-2v-1-1l-1-1-1-3h-1l-1-1-1-2-1-1-1-1v-1l-1-1 3 1 1 1 2 1 2 2 2 2 1 1v3l1 1 1 2v1h1l1-1 1-1 2-3 2-2 1-2 1-1h2v2l-1 1-1 2v1l-1 1v1h2l2-2 1-2 3-2 2-1 1-2h1l-1 2-2 2-1 2-1 2-1 2v1h1l2-2 1-1 1-1 2-2 1-1 1-1 1-1 1-1v2l-1 3-1 1-2 2-1 1-2 2v1l-2 2h1l3-1 2-1 2-1 2-1 1 1 1 1v1l-2 1h-1l-2 2-2 2v1h2l1-2h1l1-1h1v1l1 1h2l-1 2v1h1l1 2h1s0-1 0 0v2l1 1h1l1 1v3h1l2 1 2-1h2l3-1h4v1l-1 1h-3l-2 1-2-1-2 1h-1l-1 1s0-1 0 0l-2 3v1c0 2-2 1 0 2l1 1h1l2-1h2l-1 1-1 1c-1 0 0-1 0 0l-1 1h-1l-1 1h-2l-1 1h-2v1h-1v1h-1l-1 13h1l183 6zm-387 63v-18 18z"/>
		</a>
	</g>
	<g id="StorageLabel" class="svg-label">
		<g>
			<path class="svg-label-fill" d="M749 162H491c-5 0-9-4-9-9V40c0-5 4-9 9-9h258c5 0 9 4 9 9v113c0 5-4 9-9 9z"/>
			<text transform="translate(503 71)">
				<tspan x="0" y="0" class="svg-text-base svg-text-bold svg-text-title">30&quot; Compartment
				</tspan>
				<tspan x="0" y="31.2" class="svg-text-base svg-text-bold svg-text-title">Storage</tspan>
			</text>
			<text transform="translate(503 139)" class="svg-text-base svg-text-price">
				$549.95
			</text>
		</g>
	</g>
	<g id="Curio_Dining" class="svg-item">
		<a href="https://www.kaplanco.com/product/31673/sense-of-place-curio-storage?c=1%7CSO1000&linkingParam=%7B%7D">
			<path
				d="M1037 348l3 1 2 19 5 1 3-1 6-6h8l8-2 30-2s0-7 8-8c8-2 22-2 26-3l14-1 13-2 14-1h9l7-1h6V151l-36 1h-38v1h-17l1 2 1 3 1 2 1 3-1 3v3l-1 2v1l-3 2v-1-1l-1-2v-2l-1-3v-2-3-3-2-2h-1l-1 2v1l-1 1-1 1-1 3-1 1v2l-1 2-2 1v-1-1l1-4v-2l-1-2-1 1-2 1h-1l-3 1-1-1 1-3-2-1-3 1-4 1 1 1 1 3-1 2-1-1-2-2v-1l-1-1-2 1v3l1 2v2l1 2v2c2 0 4 2 4 8v18l-6 2-4 3-1 2v3l-1 1h-23v-32c0-3 2-5 8-5h15l1-2 1-3c0-2-2 0-2 0l-1 1-1 1-6 1c-2 0 0-1 0-1l3-2v-2l-3 2c-1 0-2 0-2-2l2-1 1-1 1-3v-2l1-2v-1h-12l-1 2-1 3v2l-1 1 1 1-1-1-1-2v-6h-15v3l4 192zm46-27c0 5-2 7-4 7l-23 3c-6 0-8-1-8-2v-37l35 2v27zm-36-97l36 1v19h-17l1 29-20 2v-51z"/>
		</a>
	</g>
	<g id="Curio_DiningLabel" class="svg-label">
		<g>
			<path class="svg-label-fill" d="M1144 114H913c-5 0-9-4-9-9V22c0-4 4-8 9-8h230c5 0 9 4 9 8v83c0 5-4 9-8 9z"/>
			<text transform="translate(925 54)" class="svg-text-base svg-text-bold svg-text-title">
				Curio Storage
			</text>
			<text transform="translate(925 90)" class="svg-text-base svg-text-price">
				$474.95
			</text>
		</g>
	</g>
	<g id="Refrigerator_Dining" class="svg-item">
		<a href="https://www.kaplanco.com/product/31703/sense-of-place-refrigerator?c=1%7CSO1000&linkingParam=%7B%7D">
			<path
				d="M128 444l42-10 7-1 1-5-49-5-1 21zm35-81l3-4 7-2-2-10-60 8 1 6 1 13 18-5 32-6zm47-165v-1l-1-2-2-1h-37l-2 3c0 1-1 2-3 2H83l-1-1h-2l-44-1h-6l-1 3 2 182h14c1 1 5 14 9 33l7 45 22 5h3l1-1 10-2-1-54s-20-5-22-9c-3-5 0-12 22-20l-1-16-2-24h15l1 3 61-9v-4l1-1h12c1 0 3 4 4 10l1 17h9l17-1-4-156z"/>
		</a>
	</g>
	<g id="Refrigerator_DiningLabel" class="svg-label">
		<g>
			<path class="svg-label-fill" d="M278 161H47c-5 0-9-4-9-9V70c0-5 4-9 9-9h231c4 0 8 4 8 9v82c1 5-4 9-8 9z"/>
			<text transform="translate(59 101)" class="svg-text-base svg-text-bold svg-text-title">
				Refrigerator
			</text>
			<text transform="translate(59 137)" class="svg-text-base svg-text-price">
				$299.95
			</text>
		</g>
	</g>
	<g id="OvalTable" class="svg-item">
		<a href="https://www.kaplanco.com/product/31757/sense-of-place-42-inch-oval-table?c=1%7CSO1000&linkingParam=%7B%7D">
			<path
				d="M292 521h7l12-4v-12l-20-2 1 18zm128-93l1-17-8 2-8 2 1 19 8-3 6-3zM118 539l-18 2v11l17-2 1-11zm-17 48l11 2 7-2v-19l-19 2 1 17zm319-140l-12 3v23l11-4 1-22zm19-98l-21-2h-6l-4 5c-2 2-6 4-30 4s-37-2-38-3c-2-1-3-7-3-7h-20l-9 15c-4 6-10 10-12 11l-23 3c-14 2-28 1-30 0-2 0-10-7-10-8l-1-1s-7 4-30 5-30-1-32-1l-4-1c-2 0-3-1-3-2l-1-3s-37 6-63 14-28 16-26 21c3 4 23 9 23 9l1 71 30-2 1-54 93 10 9 179 12 2 10-3 2-180 32-6 3 46 21-6 3-47 35-7 3-28-13 1-31-1c-3 0-6-4-7-6s-2-5 2-6c4-2 18-5 37-5h16v-1h2l6-1h8l1 1v5l31-6c17-3 24-6 24-6v-5l1-2h14l-3-2zm-252 49l-27 1c-6 1-16 0-26-1s-18-3-21-4-6-6-6-8 10-4 17-5h38c16 0 26 2 29 4 0 0 5 6 5 8s-1 4-9 5zm184-10l-1 18 34-8 20-7 1-17-22 7-32 7zm49 105l-9 4v8l8 1 1-13zm2 42l-7 3 1 12h7l-1-9v-6z"/>
		</a>
	</g>
	<g id="OvalTableLabel" class="svg-label">
		<g>
			<path class="svg-label-fill" d="M381 298H150c-4 0-8-4-8-9v-82c0-5 4-9 8-9h231c5 0 9 4 9 9v82c0 5-4 9-9 9z"/>
			<text transform="translate(162 238)" class="svg-text-base svg-text-bold svg-text-title">
				Oval Table
			</text>
			<text transform="translate(162 274)" class="svg-text-base svg-text-price">
				$319.95
			</text>
		</g>
	</g>
	<g id="FarmhouseTable" class="svg-item">
		<a href="https://www.kaplanco.com/product/33066P/sense-of-place-farmhouse-table-and-benches?c=1%7CSO1000&linkingParam=%7B%7D">
			<path
				d="M972 283l-198-7s22 1 22 3l-4 2s1 5-1 5c-3 0-5-2-5-2h-17s-2 4-4 4-4-3-4-3h-24l-3 2h-8l3-3c1 0-9-2-9-4s19-4 19-4v-1l-99-4-96 14v6l7 1 1 59-17 4c-2 0-2 2-2 3l3 3 1 72h11l3-16h14l5-26 2 32 6 1 5-1 3-40 52 4 1 7h9l3-1v-5l22 2-1 2 7 1 6-2 121 9 8 59 8 1 4-1 3-61 5-1 10 51h12v-78l1-3c0-1-2-3-5-3l-137-8v-8l162 10 1 54 7 36h9l4-1 1-41 22-7 2 15h7l5-1v-20l11-2 2 14h3l5 15h11l-2-129 7-2v-5zm-336 67l-64-4-1-36 66 3-1 37zm55 4v-8l8 1 1 7h-9zm-18-30c-2 0-2 1-2 2l2 2v25l-19-2v-36l57 2-38 7zm227 64v-28l18 1 1 20-19 7zm37-13l-1-15 5-1 2 13-6 3zm-38-47v-3l47-12v17l-47-2z"/>
		</a>
	</g>
	<g id="FarmhouseTableLabel" class="svg-label">
		<g>
			<path class="svg-label-fill" d="M872 231H623c-5 0-9-4-9-8V113c0-5 4-9 9-9h249c4 0 8 4 8 9v109c1 5-3 9-8 9z"/>
			<text transform="translate(635 144)">
				<tspan x="0" y="0" class="svg-text-base svg-text-bold svg-text-title">Farmhouse Table
				</tspan>
				<tspan x="0" y="31.2" class="svg-text-base svg-text-bold svg-text-title">and Benches</tspan>
			</text>
			<text transform="translate(635 209)" class="svg-text-base svg-text-price">
				$782.95
			</text>
		</g>
	</g>
	<g id="WovenBaskets" class="svg-item">
		<a href="https://www.kaplanco.com/product/31708/sense-of-place-woven-baskets-set-of-3?c=1%7CSO1000&linkingParam=%7B%7D">
			<path
				d="M1087 523l-12-15c-1-1-5-9-7-10l-7-4-7-2-2-3s-3 3-3 0l-1-3-7-1-13-22c-5-7-13-13-20-13s-15 7-16 13l-2 12s-7-4-14-5c-6 0-14 4-16 7l-3 5h-8v4h-4l-1 2s-15-2-19 1c-4 2-8 5-8 7v9s-11 11-14 21c-3 9-4 36-3 46l4 39c1 3 2 8 12 9l66 8 55 6c5 0 12 1 17-3l33-26 2-12 4-45c0-10-3-21-6-25zm-121-42s6-5 10-4c4 0 9 4 9 4h-19zm31 2v-9c0-2 0-8 4-13 4-6 12-3 17 1 4 3 14 22 14 22l-35-1zM157 143l4 2-1-4h-5c0 1 0 2 2 2zm-51 16h1l1-3 1-2c0-1 1-2-1-2h-3v5l1 2zm-18-7l1-4v-4l-1 4-2 3-2 4 2-1 2-2zm80 9l-4-10-3-3v-1l-4-1-7-1-3-2-2-2-5 1 2 5c0 2 0 7-2 8l-4 4-3 2-1-5-2-6v-5l2-2v-2h-12l-1 2h-3l-1 5-1 3c-1 1-1 2 1 3 1 1 4 1 5 3 1 1 2 3 1 4l-6 5-4 3-2-2c-1-1-3-3-3-5l-1 2v2l1 2v1l1 2 1 2v1l-2 1h-2l-1-1-1-1-2-1-1-2v-2l-1-1-2-2 1-1-1-1v-2l2-2 3-2c2-1 1-2 1-3v-2l-3-1-2-1-3-1v-3l1-2 1-3h-2l-4 1 1 1v10l-1 4 1 5v3l-3 2-2 1-2 2-2 1-1 1v5h-3v11l1 6 3 5h83l3-2 1-6 1-14-2-16z"/>
		</a>
	</g>
	<g id="WovenBasketsLabel" class="svg-label">
		<g>
			<path class="svg-label-fill" d="M998 430H767c-5 0-9-4-9-9v-82c0-5 4-9 9-9h231c5 0 9 4 9 9v82c0 5-4 9-9 9z"/>
			<text transform="translate(779 370)" class="svg-text-base svg-text-bold svg-text-title">
				Woven Baskets
			</text>
			<text transform="translate(779 406)" class="svg-text-base svg-text-price">
				$109.95
			</text>
		</g>
	</g>
	<g id="BlueOvalCarpet" class="svg-item">
		<a href="https://www.kaplanco.com/product/33170/sense-of-place-highland-stripe-blue-oval-carpet-6-x-9-inch?c=26%7CCR1035&linkingParam=%7B%7D">
			<path
				d="M403 497l-18 5 18 1v-6zm0 26v-3l-35-4 1 20 34-13zm-57 0l-11 4 11 2v-6zm-123-34l-5-1-5 1-17 4v8l28-7-1-5zM41 548h-4l5 6-1-6zm58 4v-12l-34 5 1 11 33-4zm53-7l-1-19-18 3v2l19 14zm534-9c-1-3-12-19-28-26-17-7-56-20-120-27l-70-5v11l4 34-15 1-4-37-1-10h-6l-7 2 1 47c0 15 2 30 4 38l2 20-4 1-12-2s-3-10-4-21l-2-12h-8v-7l-12-1v-2l-33 11 2 30 4 29-5 2-14-2-6-39h-3l-2-26-50-7-7 3a62332 62332 0 001 56l-6 1-10-2-2-108-7-2c-2 0-3-2-2-4l-6 1 1 66h-6v62l-11 3-11-2-5-102-32 8-3 19-6 1-1 33h-11l-3-2-1-58-2 1 2 114-13 2-2-3-2-61-18 2v33l-12 1-3-4 1-28h-1v20l-7 1-10-2-1-16 15-2-49 5-1 13-8 56-18 1-1-1s0-15 2-28l1-38-8-8-6 43-16 2-3-1 4-26c2-10 1-26 1-39v-12l-14 3v178h229s85-5 202-50 203-86 229-99c27-13 26-29 26-32zm-395-33l-2 1v18h3l-1-19zm32 5l-12-2v13l11-3 1-8zm12 2v2l6-2h-6z"/>
		</a>
	</g>
	<g id="BlueOvalCarpetLabel" class="svg-label">
		<g>
			<path class="svg-label-fill" d="M573 442H342c-5 0-9-4-9-9V324c0-5 4-9 9-9h231c5 0 9 4 9 9v109c0 5-4 9-9 9z"/>
			<text transform="translate(354 355)">
				<tspan x="0" y="0" class="svg-text-base svg-text-bold svg-text-title">Highland Stripe
				</tspan>
				<tspan x="0" y="31.2" class="svg-text-base svg-text-bold svg-text-title">Oval Carpet</tspan>
			</text>
			<text transform="translate(354 421)" class="svg-text-base svg-text-price">
				$549.95
			</text>
		</g>
	</g>
	<g id="BlueLeafCarpet_Dining" class="svg-item">
		<a href="https://www.kaplanco.com/product/33168/sense-of-place-blue-leaf-carpet-6-x-9?c=26%7CCR1035&linkingParam=%7B%7D">
			<path d="M1195 567s-1 3-4 3l-9 2-3 35-13 2-12-4-6-36-56-16-4 40c0 6 0 11-2 12l-33 26c-5 4-11 3-17 3l-55-6-66-8c-10-1-10-6-11-9l-5-39v-14l-81 13-23 5c-2 0-3 4 3 6l202 79 29 10 79 30 38 16h53V566l-4 1z"/>
		</a>
	</g>
	<g id="BlueLeafCarpet_DiningLabel" class="svg-label">
		<g>
			<path class="svg-label-fill" d="M1061 507H820c-5 0-9-4-9-9v-83c1-4 5-8 9-8h241c4 0 8 4 8 8v83c1 5-3 9-8 9z"/>
			<text transform="translate(832 447)" class="svg-text-base svg-text-bold svg-text-title">
				Blue Leaf Carpet
			</text>
			<text transform="translate(832 483)" class="svg-text-base svg-text-price">
				$295.95
			</text>
		</g>
	</g>
	<g id="Couch_Dining" class="svg-item">
		<a href="https://www.kaplanco.com/product/33139/sense-of-place-tan-vinyl-couch?c=1%7CSO1000&linkingParam=%7B%7D">
			<path
				d="M1194 342l-7 1h-10l-13 1-14 2-14 1c-3 0-17 1-25 3s-9 8-9 8l-30 2c-9 0-11 4-11 8v52h-10c-5 0-11-1-16 1-4 2-6 6-6 9l3 36v4l9 15 7 1v3c1 3 4 0 4 0l1 3 7 2 8 4 6 10 12 15c4 5 7 15 6 25l-1 5 57 16 6 36 12 4 12-3 4-35 9-1c3-1 3-3 3-3l5-1 1-224h-6z"/>
		</a>
	</g>
	<g id="Couch_DiningLabel" class="svg-label">
		<g>
			<path class="svg-label-fill" d="M1159 328H929c-5 0-9-4-9-9v-83c0-5 4-9 9-9h230c5 0 9 4 9 9v83c0 5-4 9-9 9z"/>
			<text transform="translate(941 268)" class="svg-text-base svg-text-bold svg-text-title">
				Tan Vinyl Couch
			</text>
			<text transform="translate(941 304)" class="svg-text-base svg-text-price">
				$299.95
			</text>
		</g>
	</g>
</svg>
