<svg xmlns="http://www.w3.org/2000/svg" viewBox="0 0 440 358">
	<style>
		.sop-24instorage svg {
			background-image: url("images/sop-24instorage.png");
			background-size: 100% 100%;
			background-repeat: no-repeat;
			max-width: 1200px;
			width: 100%;
			border: 0 solid #FFFFFF;
			border-radius: 15px;
		}
	</style>
	<g id="_x32_4_Storage" class="svg-item">
		<a href="https://www.kaplanco.com/product/32845/sense-of-place-24-inch-compartment-storage?c=1%7CSO1000&linkingParam=%7B%7D">
			<path
				d="M390 149l-8 2h-43l-1 2h-15l-18-1-2-4-132-7-1 3-6 1-9 1-44-2-4-1-1-3-1-1v-1H87s0-3-3-3l-35 6c-1 0-2 1-2 5l1 26h13c1 0 4 1 4 3s-1 4-4 4l-4 1-1 123h6l7-9v-1l164 13-4-61c-1-2 2-3 6-3h9c1 1 3 2 3 4v3l49 8s1-2 8-5l10-2 2-49v-1s1-2 4-2l7 1 1 2v4l65 3v-56c0-2-2-3-3-3zm-96 126l-23-3-22-4 2 22 32 5 24 4v-20l-8-2-5-2zm90-53l-58-3v20l34 2 6-1-1-3 1-3 11-2 11-1v-2l-2-3-2-4zm-29 88l32 1v-3l-33-6 1 8z"
				fill="none"/>
		</a>
	</g>
	<g id="_x32_4_StorageLabel" class="svg-label">
		<g>
			<path class="svg-label-fill" d="M288 147H30c-5 0-9-4-9-9V26c0-5 4-9 9-9h258c5 0 9 4 9 9v112c0 5-4 9-9 9z"/>
			<text transform="translate(42 57)">
				<tspan x="0" y="0" class="svg-text-base svg-text-bold svg-text-title">24&quot; Compartment
				</tspan>
				<tspan x="0" y="31.2" class="svg-text-base svg-text-bold svg-text-title">Storage</tspan>
			</text>
			<text transform="translate(42 124)" class="svg-text-base svg-text-price">
				$309.95
			</text>
		</g>
	</g>
</svg>
