<svg xmlns="http://www.w3.org/2000/svg" viewBox="0 0 550 825">
	<style>
		.sop-carpet svg {
			background-image: url("images/sop-carpet.png");
			background-size: 100% 100%;
			background-repeat: no-repeat;
			max-width: 700px;
			width: 100%;
			border: 0 solid #FFFFFF;
			border-radius: 15px;
		}
	</style>
	<g id="Couch_Carpet" class="svg-item">
		<a href="https://www.kaplanco.com/product/33139/sense-of-place-tan-vinyl-couch?c=1%7CSO1000&linkingParam=%7B%7D">
			<path
				d="M65 473l-10-8-10-21-45-30V174l13-5 18-8 13-4c3-1 6-5 8-5l10-4 10-4 9-5 9-2 12-6 16-7c5-2 14-7 19-8s8-3 12-5 8-4 11-4l5 2 4 2 24-10 8-4c2 0 8 1 11 5s6 12 8 19l1 12s27 7 53 16l64 23c3 1 5 4 5 7 1 3-1 19-2 28l-1 35-1 30-8 5-5 23-7 4-10-3-2-11L90 430l-1 1v3l-11 7v23l-13 9z"/>
		</a>
	</g>
	<g id="Couch_CarpetLabel" class="svg-label">
		<g>
			<path class="svg-label-fill" d="M279 147H48c-5 0-9-4-9-9V56c0-5 4-9 9-9h231c5 0 9 4 9 9v82c0 5-4 9-9 9z"/>
			<text transform="translate(60 87)" class="svg-text-base svg-text-bold svg-text-title">
				Tan Vinyl Couch
			</text>
			<text transform="translate(60 123)" class="svg-text-base svg-text-price">
				$299.95
			</text>
		</g>
	</g>
	<g id="Chair_Carpet" class="svg-item">
		<a href="https://www.kaplanco.com/product/33139/sense-of-place-tan-vinyl-couch?c=1%7CSO1000&linkingParam=%7B%7D">
			<path d="M398 708l-5-23-9-9 2-58c0-12-4-29-3-38s5-17 13-22 16-7 23-6 20 12 20 12l110-71v331h-24L420 714l-7 5h-1l-14-11z"/>
		</a>
	</g>
	<g id="Chair_CarpetLabel" class="svg-label">
		<g>
			<path class="svg-label-fill" d="M514 483H284c-5 0-9-4-9-9v-82c0-5 4-9 9-9h230c5 0 9 4 9 9v82c0 5-4 9-9 9z"/>
			<text transform="translate(295 423)" class="svg-text-base svg-text-bold svg-text-title">
				Tan Vinyl Chair
			</text>
			<text transform="translate(295 459)" class="svg-text-base svg-text-price">
				$209.95
			</text>
		</g>
	</g>
	<g id="WovenBasket" class="svg-item">
		<a href="https://www.kaplanco.com/product/31708/sense-of-place-woven-baskets-set-of-3?c=1%7CSO1000&linkingParam=%7B%7D">
			<path
				d="M492 79c-2-5-1-5-1-8l-5-7-4-7c0-2-3-4-4-5l-4-1s-1-18-6-25-9-6-12-5-7 6-9 12l-3 10-13-4h-10l-9 1-15 2c-4 1-10 6-11 7l-3 5c-2 2-1 6-1 6s-6 6-11 21-6 30-6 35l1 11 9 5 11 4 8 3 15 7 18 7h13c4-1 45-24 48-26 3-1 2-3 2-3l3-15c1-8 0-24-1-30zm-28-29l-8-3-8-3s3-12 6-15 4-4 6-4c2 1 4 5 6 9a65 65 0 014 17l-6-1z"/>
		</a>
	</g>
	<g id="WovenBasketLabel" class="svg-label">
		<g>
			<path class="svg-label-fill" d="M514 280H284c-5 0-9-4-9-9v-82c0-5 4-9 9-9h230c5 0 9 4 9 9v82c0 5-4 9-9 9z"/>
			<text transform="translate(295 220)" class="svg-text-base svg-text-bold svg-text-title">
				Woven Baskets
			</text>
			<text transform="translate(295 256)" class="svg-text-base svg-text-price">
				$109.95
			</text>
		</g>
	</g>
	<g id="Blue_Leaf_Carpet" class="svg-item">
		<a href="https://www.kaplanco.com/product/33168/sense-of-place-blue-leaf-carpet-6-x-9?c=26%7CCR1035&linkingParam=%7B%7D">
			<path d="M396 558c9-5 15-6 23-5s20 12 20 12l110-72V306l-208-85-1 20-1 30-8 6-4 23-8 4-10-4-2-10L90 430l-1 1v3l-11 7v23l-13 9-10-8-10-21-45-30V244v426l169 155h380v-1h-24L420 714l-7 5h-1l-14-11-5-23-9-9 2-58c0-12-4-29-3-38 1-8 5-17 13-22z"/>
		</a>
	</g>
	<g id="Blue_Leaf_CarpetLabel" class="svg-label">
		<g>
			<path class="svg-label-fill" d="M332 671H86c-5 0-9-4-9-9v-82c0-5 4-9 9-9h246c5 0 9 4 9 9v82c0 5-4 9-9 9z"/>
			<text transform="translate(98 611)" class="svg-text-base svg-text-bold svg-text-title">
				Blue Leaf Carpet
			</text>
			<text transform="translate(98 648)" class="svg-text-base svg-text-price">
				$295.95
			</text>
		</g>
	</g>
</svg>
