<svg version="1" xmlns="http://www.w3.org/2000/svg" viewBox="0 0 440 358">
	<defs>
		<style>
      svg {
        background-image: url(images/sop-24instorage.png);
        background-size: 100% 100%;
        background-repeat: no-repeat;
        max-width: 440px;
        width: 90%;
        border: 15px solid #FFFFFF;
        border-radius: 25px;
      }
      path {
        fill: transparent;
        cursor: pointer;
        transition: fill 0.2s;
      }
      svg a:focus,
      svg a:hover {
        outline: none;
      }
      svg a:focus path,
      svg a:hover path {
        fill: rgba(216, 209, 94, 0.5);
        cursor: pointer;
      }
    </style>
  </defs>
	<g>
		<a href="https://www.kaplanco.com/product/32845/sense-of-place-24-inch-compartment-storage?c=0%7CSO1000">
			<title>24" Compartment Storage</title>
  		<path d="M389 149l-8 2h-43l-1 2h-15l-18-1-2-4-132-7-1 3-6 1-9 1-44-2-4-1-1-3-1-1v-1H86s0-3-3-3l-35 6c-1 0-2 1-2 5l1 26h13c1 0 4 1 4 3s-1 4-4 4l-4 1-1 123h6l7-9v-1l164 13-4-61c-1-2 2-3 6-3h9c1 1 3 2 3 4v3l49 8s1-2 8-5l10-2 2-49v-1s1-2 4-2l7 1 1 2v4l65 3v-56c0-2-2-3-3-3zm-96 126l-23-3-22-4 2 22 32 5 24 4v-20l-8-2-5-2z" />
		</a>
	</g>
</svg>
