<?xml version="1.0" encoding="utf-8"?>
<!-- Generator: Adobe Illustrator 23.0.6, SVG Export Plug-In . SVG Version: 6.00 Build 0)  -->
<svg version="1.1" xmlns="http://www.w3.org/2000/svg" xmlns:xlink="http://www.w3.org/1999/xlink" x="0px" y="0px"
	 viewBox="0 0 890 532" style="enable-background:new 0 0 890 532;" xml:space="preserve">
<style type="text/css">
	.st0{fill:#FF0000;}
	.st1{fill:#FFFF00;}
	.st2{fill:#00FF00;}
	.st3{fill:#00FFFF;}
	.st4{fill:#0000FF;}
	.st5{fill:#FF00FF;}
	.st6{fill:#C1272D;}
	.st7{fill:#ED1C24;}
	.st8{fill:#F15A24;}
</style>
<g id="Farmhouse_Table">
	<path class="st0" d="M721.2,210.1l-147.1-5.4l0,0.3c0,0,16.6,0.7,16.5,1.7c-0.1,1-3.2,2-3.2,2s0.8,3.6-1,3.6s-3.5-1.5-3.5-1.5
		l-13,0.2c0,0-1.1,2.3-2.5,2.4c-1.4,0.1-3.3-1.8-3.3-1.8l-17.5-0.1c0,0-2.5,1.5-2.7,1.5c-0.2,0-6,0.6-5.9-0.1
		c0.2-0.7,2.4-1.7,2.8-2.1c0.4-0.3-6.7-1.4-6.7-2.9c0-1.5,14.2-3.1,14.2-3.1l-0.1-1.1l-73.7-2.7l-71.1,10.2v4.5l5.3,0.5l0.7,43.9
		c0,0-12.1,2.5-13,2.8c-1,0.3-0.8,1.6-0.8,2.6s1.8,1.8,1.8,1.8l0.8,53.5l5,0.5l3.5-0.4l2.1-12.1l6.9,0.2l3.2-0.2l3.7-18.7l1.7,23.3
		l4.4,0.8l3.8-0.6l2.6-29.6l38.3,2.8l0.8,4.9l6.3,0.2l2.4-0.3l0.3-4.1l15.9,1.2l-0.2,1.5l5.2,0.7l4.5-1l89.5,6.3l5.7,44.3l5.8,0.4
		l3.3-0.7l2-45l3.9-0.8l7.3,37.8l5.5,0.2l3.6-0.6l-0.2-57.3c0,0,0.9-1.7,0.9-2.5c0-0.8-1.3-2.1-3.6-2.1
		c-2.2-0.1-101.9-6.4-101.9-6.4l0.3-5.8l120.3,7.8l0.7,39.9l4.9,26.4l6.5,0.2l3.4-0.7l0.7-30.6l16.3-4.8l1.6,10.8l5,0.3l3.3-1
		l0.2-14.8l8.5-1.8l1.2,10.7l2.2,0.1l3.6,11.1l6.4,0.1l1.9-0.5l-1.6-95.3l5.1-1.2V210.1z M471.6,259.6l-47.7-3l-0.3-26.4l48.4,2.3
		L471.6,259.6z M512.1,262.4l0.6-5.7l6.1,0.5l0.4,5.5L512.1,262.4z M499,240.2c-1.2,0.2-1.2,0.9-1.2,1.8c0,0.9,1.7,1.5,1.7,1.5v18.1
		l-14.5-1.2l0.3-27l41.8,1.7C527.1,235.1,500.2,240,499,240.2z M667.7,287.5l-0.2-20.2l13.1,0.4l1.2,14.9L667.7,287.5z M694.7,278.4
		l-0.5-11.1l3.6-0.7l1.7,9.6L694.7,278.4z M667,243.2l-0.1-2.1l34.6-8.8l0.2,12.2L667,243.2z"/>
</g>
<g id="_x33_6_x22__Storage">
	<path class="st1" d="M327.4,278.4l8.1-1.7l0.1-2.5l-7.9-0.2L327.4,278.4z M422.9,208.4l-1.2-53.9l-0.5-0.7l-36.7-0.5
		c-0.9,1.1-1.8,2-1.8,2.2c0,0.4,0.2,2.4,0.2,2.4h-11.1l-0.2-1.8c0,0-0.4-0.5-1-1.1l-4.1,0.3v2.8c0,0.7-4.7,1.6-18,1.7
		c-13.3,0.1-15.8-1.1-15.8-1.4V158l-2.3,0.2c0,0.8,0,1.4,0,1.5c0,0.5-0.9,2.9-9.6,2.8c-6.2-0.1-9.7-0.5-9.7-1.2c0-0.2,0-0.7,0-1.5
		l-33.2,2.7l0,0.1l0.8,0.8l0.7,1c0,0,0.7,1.5,1,2s0.7,0,0.7,0s0.7-0.3,1.8-1c1.2-0.7,1.2,0.3,1.2,0.3l1.2-0.2c0,0,0.8-0.3,2.1-1.2
		s0,0,1-0.2c1-0.2,0.5,0,1.3-0.3s1.2-0.5,1.2-0.5s0.8-0.2,2-0.5s0.7-0.3,2-0.3c0,0,0,0-1.2,0.7c-0.9,0.5-1,0.4-1,0.4l-0.2,0.9
		c0,0-1.5,0.3-1.3,1.5c0.2,1.2-0.8,0.8-0.8,0.8l-1.5,1l-0.7,0.7l-0.3,0.8c0,0-1,0.7-1.7,1c-0.7,0.3-0.2,1-0.2,1l0.5,0.7h0.7
		c0,0,0,0,1.3,0s0.5-0.2,1.2-0.5c0.7-0.3,1.2,0,1.2,0s1,0,1.8-0.2c0.8-0.2,0.5,0,1.7-0.5l1.7-0.3l1.7-0.5c0,0,0,0,1-0.5
		c1-0.5,0,0,0.7-0.2c0.7-0.2,1,0.2,1,0.2l1.2,0.5c0,0,0.7,0.5,1.2,1s0.3,1,0.3,1l-2.3,1.2c0,0-1,0.2-2,0.3c-1,0.2-1.5,0.2-1.5,0.2
		s0,0-1.2,0.2c-1.2,0.2-1.2,0.5-1.2,0.5l-0.7,0.5c0,0-0.5,0.2-1.2,0l-1,0.7c0,0-0.7,0-2.1,0.2l0.7,0.8c0,0,0.7,1.5-0.2,1.2
		c-0.8-0.3-0.8-0.2-0.8-0.2s-0.8-0.2-1.7-0.2s-1.3,0.7-1.8,1s-0.5,0-1.2,0c-0.7,0-0.5,1.3-0.5,1.3l-0.8,0.8l-0.7,0.8l1.2,1.5
		c0,0-1.2,0.8-2.3,1.3s0,0,0.8,0.5s0.3,0.8,0.3,0.8s0.5,0.8,1,1.2s0.7,1,1.3,1.7c0.7,0.7,1,0.8,1.7,1c0.7,0.2-1.8,0.2-2.6,0.2
		s-1.3,0.3-1.3,0.3s0,0.5,0.7,1.3c0.3,0.4,1.8,1.3,1.8,1.3s1.2,1.2,2.3,1.2h0.4c0,0,0,0,0.1,0c0.5,0,0.8,0,1.5,0.2
		c0.7,0.2,1.2,0.7,1.2,0.7l0.7,1.2l0.3,1c0,0,0.2,0.8,0.3,1.5c0.2,0.7-0.7,0.2-1.8-0.2c-1.2-0.3,0,0-0.7-0.8c-0.7-0.8,0,0-0.2-0.7
		c-0.2-0.7-2.1,0-2.6-0.3s-1,0-1.5,1c-0.5,1,0.8,1.7,0.8,1.7l2,0.5l1.2,1.2l-1.5,2.1l0.7,0.3l0.7,0.2c0,0,0.5,0.2,1.2,0.3
		c0.7,0.2,1.2,0.5,1.8,0.7c0.7,0.2,0.3,1.3,1.2,1.7c0.8,0.3,0.8,0.7,0.8,0.7l1.5,1.2l1.7,2c0,0,1.2,1.3,1.8,2.3s2,2.1,3.1,2.8
		c1.2,0.7,0.8,2,0.8,2s-1.3-0.5-2-1c-0.7-0.5-1.2-0.5-1.7-1.3s-0.8-0.8-1.8-2c-1-1.2-0.7-0.8-1.5-1.8s-0.5-0.5-2.1-2.1
		s-0.8-0.5-1.7-1.5c-0.8-1-0.8-0.3-1.8-0.8c-1-0.5,0,0-0.7-0.5c-0.7-0.5-1-0.2-2.5-0.2l0.5,0.7l0.3,1c0,0,0.2,0.5,0,1
		c-0.2,0.5-0.5,1-0.5,1l0.5,1.3c0,0,2,1.5,2.1,2c0.2,0.5-0.2,0.7-0.3,1.7c-0.2,1,0.2,1.7,0.2,2.3c0,0.7-0.3,0.7-0.7,1.3
		c-0.3,0.7-0.2,1.5-0.2,1.5l0.2,1.8l0.2,2c0,0,0,1.2,0,2s-0.5,0.8-0.5,0.8s-0.5,0-1.2-0.7c-0.7-0.7,0,0,0-1s0,0-0.5-1.3
		c-0.5-1.3-0.3-1.2-0.3-1.2l-0.7-1.5c0,0-0.2-0.7,0.2-2.1c0.3-1.5,0,0,0.7-1.8c0.7-1.8,0,0-0.2-0.8c-0.2-0.8-1-2.6-1-2.6l-0.3-2.1
		c0,0,0.2-0.7-0.2-2.6c-0.3-2,0,0-0.3-2c-0.1-0.3-0.1-0.6-0.1-0.7c0,0,0,0,0,0c0-0.1,0-0.1,0-0.2c0,0,0,0.1,0,0.2c0,0,0-0.1,0-0.3
		c-0.2-1,0,0-1-1.3c-1-1.3-1.7-0.5-2.3-1.2c-0.7-0.7,0.7,2.1,0.7,2.1l-0.7,1.2l-0.3,0.7c0,0,0.5,0.7,1.8,1.3
		c1.3,0.7,0.3,0.7,0.3,0.7l0.8,1.8l-1.2,2.1l-0.8,2.1l-0.7,0.8c0,0,0.2,1,0.7,1.2s0.5,1.5,0.5,1.5v1.8c0,0,0.3,1.8,0.5,2.8
		c0.2,1,0.3,1.8,0.3,2.5c0,0.7,0,1.2,0.2,1.7c0.2,0.5,0,1.5,0,2.5s0,1.8-0.2,2.6s-0.8,1.3-0.8,1.3l-1.2,0.5c0,0-0.8,0-1.3-0.3
		s0-0.5,0-1.5c0-1,0-0.7,0.2-1.8c0.2-1.2,0-2.3,0-2.3s0-0.7,0-2.3s-0.8-2.1-0.8-2.1l-0.3-2.5c0,0-0.2-0.5-1-1.7
		c-0.8-1.2-0.5-1-1.3-2.6s-0.8-0.8-0.8-0.8l-0.2,1l0.3,2.1l0.2,1.5l0.7,3.8c0,0,0,1.3,0,1.8c0,0.5,0.2,2.1,0.2,2.1v2.1
		c0,0,0.2,1.2,0.2,2.3s0.2,1.8,0.2,1.8l0.2,1.8l0.3,1.5l-0.3,2c0,0-0.5,1.5-0.7,2.1c-0.2,0.7-0.5,1-0.5,1v1.7c0,0,0,1.7,0,2.1
		s0,2.3,0,2.3v1.7l-0.7,1l-1.3-0.8c0,0-0.7-0.8-0.7-1.7v-0.4c0,0,0,0,0,0V248c0-0.7,0,0,0-0.8c0-0.8-0.2-0.8-0.2-1.5s0-0.7,0.2-1.3
		c0.2-0.7-1.2-3-1.2-3l-0.2-3.1l-1-1.2l-0.5,0.8l0.5,2.6c0,0,0,1.5,0.2,2.5c0.2,1,0.7,1.8,0.7,1.8l0.2,2.5l-0.2,0.7l-0.7-0.2
		c0,0-0.8-0.7-1.3-1.8s0-0.5,0-1.5c0-1,0,0-0.3-1.5c-0.3-1.5-0.5-1-0.5-1l-0.5-1.2c0,0-0.2-0.7-0.2-2.3s-0.3-1-0.7-1.7
		c-0.3-0.7,0-1,0-1s0-0.8,0.2-1.7c0.2-0.8,0.3-0.7,0.3-2s-0.3-0.7-0.3-1.8s-0.2-2.1-0.2-2.1l-0.2-2c0,0,0-1.2,0.2-2.6
		c0.2-1.5,0.2-1.7,0.2-1.7s0.3-1.3,0.8-1.7c0.5-0.3-1-1.2-1-1.2s-2.1,8.4-3.1,11.6c-0.2,0.8-0.8,2.4-1.5,4.3l-0.1,17.4
		c2.7-0.1,5.2-0.1,7.4,0c4,0.2,6.4,0.2,6.4,0.2s1-14.4,1.7-16c0.7-1.7,2-2.3,2.5-2.8c0.5-0.5,3.8-1.3,5.3-1.2c1.5,0.2,3,0.7,2.8,1.3
		c-0.2,0.7-0.3,2.8-0.3,2.8l48.6,2.8c0,0,1.3-4,5-3.8c3.6,0.2,5.3,1,5.3,1s-1.1,18.1-1.9,37.5l49-10.3c0.1-0.5,0.3-0.9,0.8-1
		c1-0.3,13-2.8,13-2.8l-0.7-43.9l-5.3-0.5v-4.5L422.9,208.4z M289.2,252.8c0,0,4.1-0.2,8.3,0.7s7.3,2.1,7.9,2.5
		c0.7,0.3,0.7,0.8,0.7,0.8s9.9,1.2,14.5,1.7s6.6,0.8,7.1,1.3c0.5,0.5,0.5,4,0.5,4l8.3,0.3l0.8-14.5l-47.9-2.5L289.2,252.8z
		 M666.9,241.1l0.1,2.1l34.7,1.4l-0.2-12.2L666.9,241.1z M710.3,209.7l-0.9-60.8l-3,0.2l-11.7,1.7l-125.3-0.8l-0.5,1.1l-18.2-0.3
		l-0.6-1.8l-25.2,1.1l-0.7,1.8l1.1,51l23,0.8l0,0.2l0.4,0l-0.3-0.6l-1.5-8l0.2-0.7v-0.4l-0.8-0.9c0,0-0.2-0.4-0.4-0.7
		c-0.2-0.2-0.6-1-0.6-1l-0.5-1c0,0,0-0.3-0.1-0.9c-0.1-0.6-0.2-1-0.3-1.3c-0.2-0.3-0.3-0.7-0.3-0.7s0-0.4-0.5-0.7
		c-0.5-0.2-0.8-0.5-0.8-0.5s-0.3-0.2-0.4-0.4c-0.1-0.2-0.5-0.3-0.2-0.6c0.2-0.2,0.2-0.4,0.7-0.4c0.5,0-0.2-0.4,0.9,0.1
		c1.1,0.5,1.3,0.4,1.3,0.4s1.1-0.3,0.3-1.6c-0.7-1.2-1.2-1.8-1.2-1.8s-0.1-0.3-0.3-0.3c-0.2,0-1.1-0.1-1.1-0.1l-2.4,0.2h-0.7
		c0,0-1.1-0.2-1.3-0.2s-0.9,0.2-0.9,0.2s-0.9,0-1.2,0.1s-0.7,0-1.2,0.1s-1.2,0.2-1.2,0.2l-0.9,0.2l-0.6,0.2l-0.6,0.3l-0.6,0.2
		l-0.3,0.2h-0.4l-0.3-0.2c0,0-0.3-0.3,0-0.7c0.3-0.3,0.7-0.7,0.7-0.7s0.2-0.2,0.4-0.4c0.2-0.2,0.2-0.3,0.5-0.6
		c0.2-0.2,0.7-0.8,0.7-0.8s0.3-0.2,1.1-0.7c0.7-0.5,1-0.5,1.2-0.7c0.2-0.2,0.6-0.7,0.6-0.7l1.2-0.1c0,0,0.7-0.2,1.1-0.2
		c0.3,0,0.5-0.2,1-0.2c0.5-0.1,1-0.1,1-0.1s0.8-0.1,1.1-0.2c0.2-0.2,0.5-0.2,0.5-0.2s0.3-0.4,0.3-0.8s-0.2-0.9-0.2-0.9
		s-0.2-0.4-0.3-0.7c-0.2-0.2-0.5-0.6-0.7-0.8c-0.2-0.2-0.8-0.9-0.8-0.9c-0.3-0.6-0.5-1-0.5-1v-0.6c0,0,0.6-0.6,1.1-0.3
		c0.5,0.2,0.5,0.2,0.5,0.2l0.4,0.2l0.5,0.1c0,0,0.7,0.8,0.1-0.6c-0.7-1.4-1.1-1.6-1.1-1.6l-0.8-0.7l-1.5-0.5l-0.6-0.2h-0.6l-0.8,0.2
		l-0.6-0.3l-0.1-0.8l0.2-0.4h1l0.9-0.1c-0.1-0.6-0.1-0.4-0.2-0.8c-0.2-0.4-0.2-0.2-0.5-0.7c-0.2-0.5-0.4-1.2-0.4-1.2l-0.3-0.2
		c0.2-0.4,0.8-0.6,0.8-0.6s0.3,0.1,0.6,0.1c0.2,0-0.3-0.1,0.2,0c0.5,0.1,1.4,0.4,1.7,0.5c-0.1-0.1-0.2-0.1-0.3-0.2
		c-0.4-0.3-0.7-0.7-0.7-0.7l-0.3-0.7l-0.2-0.4l-0.2-0.7l-0.1-1c0,0-0.3-0.7,0.9,0.2c1.2,0.9,1.1,0.4,1.9,1.2s0.6,0.5,1.1,1.2
		c0.5,0.7,1,1.3,1,1.3s0.2,0.4,1,1.3s1,1.4,1,1.4s0.5,0.4,0.9,0.8s0,0.2,0.4,0.7c0.4,0.5,0.6,0.2,0.8,1.1c0.2,0.9,0.3,1.6,0.3,1.6
		s-0.4,0.5,0.2,0.8s0.7,0.4,1.2,0.3c0.4-0.1,0.9,0.2,1.1-0.2c0.2-0.4,0.2-0.6,0.2-0.8s0.2-0.4,0.3-0.8c0.1-0.4,0.2-1.7,0.2-1.7
		s-0.4-0.8-0.5-1.2s-0.1-0.2-0.2-0.7c-0.2-0.6-0.4-1.2-0.4-1.2s-0.1-0.1-0.4-0.9c-0.3-0.8-0.8-1.2-1-1.6c-0.2-0.3-0.5-0.7-0.5-0.7
		s-0.3-0.2-0.6-0.6c-0.2-0.4-1-1.2-1-1.2s-0.4-0.1-0.7-0.5c-0.2-0.4-0.4-0.2-0.7-1s-0.3-1-0.3-1l-0.4-0.3c0,0,1.7-0.1,2,0.2
		c0.2,0.3,1,0.8,1,0.8l1.4,1.1l1.2,1.5l1.3,1.2c0,0,0.6,0.2,0.7,0.8c0.2,0.6,0.2,0.3,0.3,0.9c0.2,0.6,0.3,1.1,0.3,1.1
		s0.4,0.4,0.7,1.1c0.3,0.7,0.4,0.7,0.5,1.2c0.1,0.5,0.1,0.5,0.4,0.9c0.3,0.4,0.6,0.2,0.6,0.2l0.3-0.9l0.7-1.2c0,0,1.1-0.8,1.8-1.7
		c0.7-0.8,0.9-1,1.4-1.6c0.5-0.6,0.7-0.9,1.2-1.3s0.7-0.8,0.7-0.8l1-0.4c0.2,0.2,0.7,0.2,0.6,0.8s-0.2,0.2-0.4,0.8s0,0.4-0.4,1.1
		c-0.4,0.7-0.7,1.1-0.7,1.1l-0.7,1l-0.4,0.7l-0.4,0.9c0,0,1.2,0.3,1.9-0.2c0.7-0.6,0.8-0.9,1.2-1.3c0.3-0.4,0.3-1.2,1.2-1.7
		c0.8-0.5,1.6-0.9,2.1-1.3c0.6-0.4,0.9-0.3,1.3-0.9c0.4-0.6,0.9-1.2,0.9-1.2s0.2-0.3,0.3-0.1c0.1,0.2-0.2,0.9-0.6,1.5
		c-0.4,0.6-0.7,1-1.2,1.7c-0.5,0.7-0.3,0.3-1.1,1.2c-0.7,0.9-0.7,0.8-0.8,1.2c-0.1,0.4-0.2,1.7-0.2,1.7l-0.3,1.1l1.2-0.4
		c0,0,1-0.8,1.3-1.4c0.3-0.6,0.2-0.6,0.6-1s-0.2,0,0.8-0.8c1.1-0.8,1.5-1.3,1.5-1.3s0.5-0.3,0.8-0.7c0.3-0.3,0.5-0.6,0.7-0.9
		c0.2-0.3,0.7-0.6,0.7-0.6s0.6-0.8,0.7-0.4c0.1,0.4,0.4,0.7,0.2,1.2c-0.2,0.4-1,2.1-1,2.1s0.4,0.2-0.6,0.8c-1,0.7-1.2,1.6-1.7,1.7
		c-0.6,0.2-0.3-0.2-0.8,0.5c-0.5,0.7-0.5,1.1-1,1.4c-0.5,0.3-0.5,0.2-0.7,0.7c-0.2,0.4-0.9,1.4-0.9,1.4s-0.7,0.6,0.4,0.5
		c1.2-0.1,1.9-0.5,2.2-0.7c0.3-0.2,0.9-0.8,1.7-1.2c0.7-0.4,1.1-0.7,1.5-0.8s1.1-0.3,1.1-0.3s0.5-0.2,0.6,0c0.1,0.2,0,0,0.4,0.5
		s0.7,0.1,0.7,0.9c0,0.8,0.3,0.5,0,0.8c-0.3,0.3-1.1,0.6-1.1,0.6s0.1-0.8-1.1,0.2c-1.2,1.1-0.5,0.7-1.2,1.1
		c-0.7,0.3-1.7,1.3-1.7,1.3l-0.2,0.7c0.7,0.1,1.5,0,1.5,0l1.1-0.9c0,0,0.2-0.5,0.6-0.7c0.4-0.2,0.4-0.2,0.7-0.4
		c0.3-0.2,0.3-0.2,0.3-0.2s0.2-0.2,0.5,0.2c0.2,0.4,0.2,0,0.4,0.7c0.2,0.7,0.7,0.8,0.7,0.8s-0.1-0.2,0.5,0.1
		c0.6,0.2,0.6,0.2,0.6,0.2c0,0.4,0.2-0.2-0.4,0.9c-0.6,1.1-0.9,1-0.6,1.1s1-0.6,1.2,0.3s0.5,0.9,0.5,0.9s0.2-0.1,0.5,0.2
		c0.2,0.3,0.5-0.7,0.2,0.3c-0.2,1-0.5,0.5-0.2,1c0.2,0.5,0.4,0.4,0.8,0.6s-0.8-0.3,0.6,0.4c1.4,0.7,1.4,0.1,1.4,0.7
		c0,0.7,0,0.7,0,0.7l-0.2,0.7c0,0,0.1,0.3,0.1,0.7s-0.2,0.2,0.4,0.5c0.6,0.2,1.3,0.2,1.3,0.2s0.2,0.1,0.7,0.1c0.5,0,0.9-0.2,1.3-0.2
		s-0.1-0.4,1.2-0.5s1.5-0.7,2.3-0.7c0.8,0.1,1.9,0.1,1.9,0.1l1.4,0.1c0,0,0.2,0.7,0,0.9c-0.2,0.2-0.7,0.2-1,0.4
		c-0.2,0.2-1.2,0.1-1.2,0.1l-1.2,0.2c0,0-0.6,0.3-1.3,0.3c-0.7,0,0.1-0.5-1.3-0.2c-1.4,0.3-1,0.2-1.4,0.3c-0.4,0.2-0.4,0.1-1,0.4
		c-0.6,0.3-1,0.4-1,0.4s-0.1-0.3-0.2,0.3c-0.2,0.7-0.8,1.6-1,2.1c-0.2,0.5,0.4,0.3,0,1.2s-1.3,0.6-0.3,1.1c1,0.5,1,0.5,1,0.5
		s-0.1,0.4,0.8-0.1c0.9-0.5,0.9-0.6,1.2-0.6s0.7-0.1,1.1-0.1c0.3,0,0.7-0.7,0.6,0s-0.7,1-0.7,1s0,0.5-0.6,0.7s-0.2-0.6-0.6,0.2
		s-0.4,0.8-0.4,0.8s-0.2,0.2-0.6,0.2c-0.3,0.1-0.9,0.2-0.9,0.2s-0.2,0.1-0.7,0.2c-0.5,0.2,0.1,0.2-0.5,0.2c-0.6,0-0.1-0.2-0.6,0
		c-0.5,0.2,0.1,0-0.5,0.2c-0.6,0.2-0.7,0-0.9,0.1c-0.2,0.1-0.2,0.1-0.2,0.1s-0.2-0.1-0.3,0.2c-0.2,0.2-0.2,0.2-0.2,0.2
		s0.1,0.3-0.3,0.5c-0.4,0.2-0.4,0.2-0.4,0.2l-0.5,0.3l-1,10l0.5,0l0-0.2L710.3,209.7z M423.8,256.6l0.1,0l-0.3-13.6L423.8,256.6z"/>
</g>
<g id="Oval_Table">
	<path class="st2" d="M216.4,386.3l5.4-0.1l9-2.6l0.1-8.9l-15.3-1.9L216.4,386.3z M311.7,317.6l0.8-13c0,0-4.2,1.6-6.4,2.1
		c-2.2,0.6-5.9,1.4-5.9,1.4l0.6,14c0,0,4.1-1.3,6.5-2.2C309.4,319.1,311.7,317.6,311.7,317.6z M87.3,400l-13.5,1.3l0.2,8l12.9-1.5
		L87.3,400z M75,435.2l7.8,1.5l5.2-1.2l0.2-14.5l-13.8,1.9L75,435.2z M311.1,331.5l-8.8,2.7l0.2,16.6l8.3-3.1L311.1,331.5z
		 M325.4,258.8c-1.2-0.2-12.8-1.2-15.4-1.5c-2.6-0.2-4.3-0.2-4.3-0.2s-1.5,2.6-3,3.9c-1.5,1.3-4.4,3.3-22.6,3s-27.1-1.4-28.2-2.1
		c-1.2-0.7-1.7-5.4-1.7-5.4l-15,0.3c0,0-3.5,6.9-6.7,11.2c-3.2,4.3-7.3,7.3-9.3,7.8c-2,0.5-6.4,1.4-16.8,2.6
		c-10.5,1.2-21,0.4-22.3,0s-6.9-5.6-7.2-6s-1.1-1.1-1.1-1.1s-4.9,3.3-21.8,4s-22.1-0.4-23.8-0.9s-1.9-0.7-3.1-0.8
		c-1.2-0.1-2.1-0.5-2.5-1.4c-0.3-0.9-0.2-2.3-0.2-2.3s-27.7,4.6-46.7,10.7c-19,6.1-20.8,11.6-19.2,15.2c1.7,3.6,16.7,7.3,16.7,7.3
		l1,52.7l22-2.1l1.2-39.5l68.5,6.8l7.1,132.9l8.4,1.3l7.9-1.8l1-133.4l24.1-4.6l1.8,34.3l16-4.5l1.8-34.7l26.6-5.6
		c0,0,1.5-14,2.1-20.9c-3.1,0.3-7,0.7-9.9,0.8c-5.4,0.1-20.6-0.1-23-0.4c-2.4-0.3-4.4-3.2-5.2-4.5c-0.8-1.3-1.2-3.5,1.8-4.8
		s13.4-3.1,26.9-3.6c4.6-0.2,8.8-0.1,12.1,0.1c0.1-0.3,0.1-0.4,0.1-0.4l1.1-0.5l4.9-0.3l5.6,0.2l0.5,0.7l0.2,3.1
		c0,0,11-1.5,23.4-4.1c12.4-2.6,17.1-4.6,17.1-4.6l0.2-3.7l1.1-1.1l9.6-0.2l0.9,0.3C328,260.5,326.6,259,325.4,258.8z M138.5,295.1
		c-6.2,0.9-16,0.9-20.1,1.2s-11.2-0.2-19.2-0.8s-12.9-2.2-15.1-3.2c-2.2-1-4.4-4.5-4.8-5.9c-0.4-1.4,7.8-3,12.9-3.5
		s16.8-0.4,28.4-0.3c11.6,0.1,19.2,1.5,20.8,2.9c0,0,3.7,4.5,3.9,6.1C145.4,293,144.7,294.2,138.5,295.1z M275,287.9l-0.9,13
		c0,0,15.4-3,25.2-5.7c9.7-2.7,14.9-5.1,14.9-5.1l0.8-12.6c0,0-6.5,2.4-16.3,5S275,287.9,275,287.9z M311.1,365.9l-6.5,2.5l0.2,6.4
		l6,0.4L311.1,365.9z M313.1,396.9l-5.4,1.9l0.7,8.9l5.5,0.2c0,0-0.6-5.2-0.7-6.9C313.2,399.5,313.1,396.9,313.1,396.9z"/>
</g>
<g id="Oval_Carpet">
	<path class="st3" d="M298.8,387.8V386l-25.6-3.3c0.2,0.5,0.8,14.9,0.8,14.9L298.8,387.8z M165.7,362.6l-4.4-0.3
		c-1.3,0.2-2.5,0.4-3.5,0.6c-2.5,0.4-6.7,1.3-12.2,2.5l-0.4,6.1l20.8-4.8L165.7,362.6z M298.7,368.5l-13,4.1l13.2,1L298.7,368.5z
		 M256.7,388l-8.1,2.6l8.3,1.5L256.7,388z M30.5,406.3l-3,0.2l3.5,4.1L30.5,406.3z M112.5,404l-0.5-13.9l-13.5,2.3l0.2,1.7
		L112.5,404z M508.4,397.6c-0.3-2.5-8.3-14-20.5-19.3c-12.2-5.3-41.6-14.5-88.8-19.8c-24.4-2.7-41.5-3.8-52.3-4.2
		c0.1,3.8,0.2,6.7,0.3,8.3c0.3,6.4,2.8,25.6,2.8,25.6l-10.7,0.3c0,0-3.5-22.3-3.6-26.9c-0.1-3.1-0.2-5.9-0.3-7.5
		c-2.1,0-3.2,0.1-3.2,0.1l-1.7,0l-4.9,1.3c0,0,0.3,24.4,0.5,35c0.2,10.6,2,22.3,3,27.9c1,5.6,2,14.7,2,14.7l-3.1,0.8l-8.9-1.3
		c0,0-2.3-7.6-3.3-15.7c-1-8.1-1.6-8.9-1.6-8.9l-5.5-0.2l-0.4-5.1l-8.5-0.3v-0.8l0-1.1l-24.4,8.2c0,0,0.5,15,1.5,22.5
		c1,7.4,2.6,21,2.6,21l-3.3,1.7l-10.4-1.2l-5-29.1l-1.8-0.2l-2-18.8l-36.8-5.3l-5.1,1.7c0,0,0.2,23.3,0.3,30.2
		c0.2,6.9,0.2,11.9,0.2,11.9l-4.3,0.7l-7.3-1.7l-1.7-79.9c0,0-2.5-0.8-5-1.5c-1.6-0.4-2-1.7-1.8-3c-1.3,0.2-2.6,0.3-3.9,0.5
		l0.4,48.9l-4.1,0.1l-0.3,46.1l-7.9,1.8l-8.4-1.3l-4-75.3l-23.7,5.4l-2.1,14.7l-4.5,0.5l-0.3,24.6l-8.1-0.3l-2.5-1.3l-1-42.9
		l-1.2,0.5l1.5,84.6l-9.9,1.2l-1.3-2.3l-1.7-44.8l-12.9,1.3l-0.5,24.3l-8.9,0.8l-1.8-2.6l0.8-21l-0.7,0.1l-0.2,14.5l-5.2,1.2
		l-7.8-1.5l-0.6-12.3l11.1-1.5l-36.4,3.9c0,0-0.2,9.1-0.2,9.7c0,0.7-6.4,41.4-6.4,41.4L30,477.7l-1.3-0.5c0,0,0.5-11.1,1.5-20.8
		c1-9.7,1-28.7,1-28.7l-5.8-5.8l-4.5,32.4l-11.7,1.3l-2-0.7c0,0,1.3-11.1,2.5-19.2s0.5-19.5,0.7-29.7c0-2.2,0-5.2,0-8.7
		c-6.9,1.8-10.2,2.6-10.2,2.6v131.8h170.1c0,0,63.1-3.8,149.3-37c86.2-33.2,150.6-63.6,170.3-73.2
		C509.4,411.9,508.7,400.1,508.4,397.6z M73.4,409.6l0.2-8.8L48,404.2l0.7,8.1L73.4,409.6z"/>
</g>
<g id="Woven_Basket">
	<path class="st4" d="M805.8,387.7c-2.6-3.3-7.9-9.5-8.6-10.6c-0.7-1.1-3.7-6.8-4.8-7.7c-1.1-0.9-4.2-2.6-5.7-2.9
		c-1.5-0.2-5.3-1.5-5.3-1.5l-1.1-2c0,0-2,2-2.4-0.4c-0.4-2.4-0.4-2.4-0.4-2.4l-5.3-0.4c0,0-5.9-11.2-9.9-16.3
		c-4-5.1-9.5-10.1-14.8-9.9c-5.3,0.2-10.8,5.3-11.9,9.9c-1.1,4.6-1.5,9-1.5,9s-5.1-3.3-10.1-3.7s-10.6,2.9-12.1,5.3
		c-1.5,2.4-2.6,3.1-2.6,3.1l-5.5,0.2l-0.4,3.1l-2.9-0.2l-0.9,2c0,0-10.8-1.5-13.7,0.2s-6.2,3.7-6.4,5.3c-0.2,1.5,0.4,7,0.4,7
		s-8.4,8.1-10.6,15.2c-2.2,7-2.6,26.6-2,34.3c0.7,7.7,2.4,27.3,3.1,29.1c0.7,1.8,1.1,5.7,8.6,6.6s27.5,3.5,49.1,5.9
		s36.8,4.6,40.7,4.6c4,0,8.8,0.2,12.3-2.2c3.5-2.4,23.8-19.2,24.7-19.8c0.9-0.7,1.1-4,1.3-8.6c0.2-4.6,2.4-26,3.1-33.2
		C810.9,399.3,808.4,391,805.8,387.7z M716.6,356.6c0,0,4.6-3.1,7.3-2.9c2.6,0.2,6.6,3.3,6.6,3.3L716.6,356.6z M739.5,358.2
		c0,0-0.4-4.2-0.4-6.2c0-2,0.2-6.2,3.3-10.3s8.8-2.2,12.3,0.7s10.6,16.5,10.6,16.5L739.5,358.2z M116.3,106.4
		c1.4,0.4,1.5,1.3,3.3,1.3c-0.3-1.9-0.1-2.9-0.7-3c-0.2,0-2,0-4.3,0.1C114.6,105.5,115.1,106,116.3,106.4z M78.7,117.8
		c0.2,0.2,0.4,0.4,0.5,0.5c0.4-0.9,0.8-1.6,1.1-2.2c0.4-0.9,0.8-1.7,0.8-2.1s0.3-1.2-0.7-1.2c-0.8,0-1.7,0.3-2.6,0.3v1.6
		c0,0.3-0.1,0.9-0.1,0.9l0.1,0.9C77.9,116.4,78.2,117.2,78.7,117.8z M65.5,112.9c0.2-0.8,0.3-1.8,0.6-3c0.2-1.1,0.4-1.9,0.1-2.7
		c-0.2,1.1-0.5,2.3-0.8,2.8c-0.4,0.8-1.5,2.3-1.5,2.3s-0.8,1.2-1.5,2.4c0.7,0,1.4,0,1.6-0.1C64.8,114.4,65.3,113.7,65.5,112.9z
		 M124.7,119.4c-0.8-2.8-2.2-6.2-3-7.3s-2.1-1.7-2.2-2.1c-0.1-0.2,0.1-0.4,0.2-0.7c-0.9-0.4-2.1-0.8-3.6-1.1c-2.3-0.4-3.6-0.7-4.7-1
		c-1.1-0.3-2.1-0.9-2.1-0.9s-0.6-0.8-1.4-1.4c-1.6,0-3.2,0.1-4.4,0.1c0,0.1,0,0.2,0.1,0.3c0.3,1.1,2.1,3,2.1,4.1
		c0,1.1-0.6,4.7-1.7,5.9c-1.1,1.2-2.8,1.8-3.4,2.4c-0.7,0.7-2.1,1.8-2.1,1.8s-0.3-1.4-0.9-3.6s-1.4-3-1.5-4.4c-0.1-1.4-0.4-3,0-3.6
		c0.4-0.7,1.2-1.2,1.5-2.1c0.1-0.3,0.3-0.6,0.4-0.9c-3.1,0-7.2,0.1-9,0.1c-0.2,0.3-0.4,0.6-1,0.8c-1.2,0.4-1.3-0.3-1.9,0.6
		c-0.6,0.9-0.4,2.9-0.8,3.7s-0.2,1.4-0.9,2.1c-0.7,0.7-0.7,1.2,0.7,1.9c1.3,0.7,3.5,1.1,4.1,2.1c0.6,1,1.1,2.3,0.6,3.3
		c-0.6,1-3.2,3.2-4.5,4s-2.5,1.8-2.5,1.8s-0.4,0.2-1.7-1.2c-1-1.2-2.1-2.6-2.2-3.8c-0.1,0.1-0.3,0.1-0.4,0.2c-0.8,0.4-0.1,0.3-0.6,1
		c-0.4,0.7,0,1,0.2,1.7c0.2,0.7,0.7,0.9,1,1.5c0.3,0.7-0.3,0.6-0.3,0.9c0,0.3,0.3,1,0.4,1.3c0.1,0.3,0.6,0.7,1.1,1.5
		s-0.1,0.4-0.3,0.8c-0.2,0.3-0.7,0.6-1.1,0.7c-0.4,0.1-1.8-0.3-1.8-0.3l-0.8-0.4c0,0-0.4-0.6-0.8-1.1c-0.3-0.6-0.4-0.1-1.1-0.3
		c-0.7-0.2-0.7-0.9-0.6-1.3s0.1-0.4,0.1-0.4s0.1-0.4-0.1-1.3s-0.3-0.3-1-0.8c-0.7-0.4-1.4-0.8-1.4-1.3c0-0.6,0.6-0.8,0.6-0.8
		s-0.4-0.3-0.7-1c-0.2-0.7-0.1-0.7,0.1-1.3c0.2-0.7,1.7-1.7,1.7-1.7s0.7-0.4,1.9-1.3c1.2-0.9,0.7-1.3,0.7-1.8c0-0.2,0.2-1,0.4-1.8
		c-1.1-0.3-2.2-0.6-2.2-0.6s-1.5-0.9-2.1-1c-0.6-0.1-1.4-0.7-1.7-1c-0.2-0.3,0-1.3,0-1.8s0.2-0.9,0.7-1.8c0.4-0.7,0.6-1.4,0.8-1.8
		c-0.8,0-1.4-0.1-1.7-0.1c-1.2-0.2-2.2,0-2.8,0.4c0.2,0.3,0.3,0.6,0.4,0.8c0.6,1.2,0.6,2.8,0.6,3.2s-0.1-0.1-0.2,1
		c-0.1,1.1,0.3,1.9,0.1,3.2c-0.2,1.3-0.7,2.2-0.7,3c0,0.8,0.6,2.4,0.7,3.6s0.3,2-0.2,2.6c-0.6,0.7-1.5,1.3-2.2,1.4
		c-0.7,0.1-1.7,0.9-1.7,0.9s-0.3,0.3-1.1,1c-0.8,0.7-1.2,0.8-1.7,1.3c-0.4,0.6-1,0.6-1,0.6s0.1,1.1,0.3,1.8c0.2,0.7,0.1,2.1,0.1,2.1
		s-1.2-0.5-2.1-0.6c0,0.3-0.1,0.6-0.1,0.9c0,0.3-0.4,5.2-0.2,7.6c0.2,2.4,0.9,3.9,1.1,4.7c0.2,0.9,0.9,3.1,2.3,3.5
		C63,148,74,147.8,77.3,148c3.3,0.2,25.5-0.1,29.2-0.2c3.6-0.1,15-0.1,16-0.1s1.8-0.7,2.1-1.3s1.3-2.8,1.4-4.2
		c0.1-1.4,0.6-6.9,0.4-10.3C126.3,128.4,125.4,122.1,124.7,119.4z"/>
</g>
<g id="Curio">
	<path class="st5" d="M768.8,258.4l2.6,0.2l1.3,14.5l3.5,0.2l2.6-0.2l4.6-4.8h5.7l0.2,0c1.2-0.8,2.9-1.4,5.4-1.6
		c6.2-0.6,22.3-1.4,22.3-1.4s0.6-4.7,6.5-6s15.9-1.4,18.7-1.6c2.7-0.2,8.2-0.8,10.9-1.1c2.7-0.2,5.7-1.2,9.7-1.4
		c4-0.2,6.8-0.3,9.9-0.7c3.1-0.3,3.8-0.2,7.2-0.2s3.8-0.3,5.1-0.3c1.1,0,3.7-0.1,4.5-0.2V112l-27.1,0.9l-28.1,0.2l-0.1,0.2l-6.5-0.1
		l-5.8,0l0.4,2.1l1.1,1.8l0.7,1.8l0.2,1.8l-0.2,2.2v1.3l-0.4,1.5l-0.4,1.1l-0.4,1.1l-2,1.1c0,0,0,0,0-0.7c0-0.7-0.4-1.1-0.4-1.1
		s0,0-0.2-0.9c-0.2-0.9,0,0-0.4-1.8c-0.4-1.8-0.2-0.7-0.7-2s0,0,0-1.3s0,0-0.2-1.8c-0.2-1.8,0,0,0-1.1c0-1.1,0-0.7,0-1.8
		c0-1.1,0-0.7,0-1.5c0-0.7,0.4-1.1,0.7-1.8l-1.3,0c0,0.1,0.1,0.2,0.1,0.3l-0.7,1.3l0.2,0.9l-0.9,0.7l-0.7,0.9l-1.1,2l-0.2,0.9
		l-0.4,1.3c0,0-0.7,0.9-0.9,1.5c-0.2,0.7-1.3,1.1-1.3,1.1V123c0,0,0,0,0.4-0.9s0.2-1.1,0.7-2.9s0,0,0-1.5c0-1.5,0.2-0.7-0.7-1.3
		l-1.1,0.4l-1.1,0.9c0,0,0,0-0.7,0.4c-0.7,0.4-0.9,0.4-2.2,0.4l-0.7-0.9c0,0,0.4-0.7,0.4-1.8c0-1.1-1.1-0.7-1.1-0.7l-2.2,0.2
		l-3.1,1.1l0.2,0.9c0,0,0.9,1.5,1.1,2.4c0.2,0.9-1.1,1.1-1.1,1.1s0,0-0.4-0.7c-0.4-0.7-1.5-1.8-1.5-1.8s0,0,0-0.7
		c0-0.7-1.1-0.2-1.1-0.2l-1.5,0.7v1.1l0.2,0.9l0.7,1.3l0.4,1.8l0.2,1.1v1.5c1.5,0,3.1,2,3.1,6.4c0,4.4,0,13.4,0,13.4s-2.6,0.4-4,1.1
		c-1.3,0.7-2.9,2-2.9,2l-1.1,1.8l-0.2,2.2l-0.4,0.9l-17,0.2c0,0,0-22.2,0-24.2s1.3-3.5,5.5-3.5c2.5,0,7.5-0.1,11.5-0.1
		c0.1-0.3,0.2-0.7,0.4-1.4c0.4-1.1,0.4-0.9,0.9-2.4c0.4-1.5-1.1-0.2-1.1-0.2l-0.9,1.1l-0.9,0.7c0,0-2.4,0.9-4.2,0.7
		c-1.8-0.2,0-0.9,0-0.9s1.1-0.7,2-1.1s0.7,0,0-1.5c0,0-1.3,0.9-2.2,1.3s-1.5-0.4-1.1-1.3s0,0,1.3-1.1c1.3-1.1,0.7-0.9,0.7-0.9
		l0.7-1.8c0,0-0.2-0.9-0.2-2c0-1.1,0.7-1.3,0.7-1.3s0.1-0.3,0.3-0.7h-8.6l-0.3,0.4l-0.7,1.5c0,0-0.4,1.3-0.7,2
		c-0.2,0.7,0,0.4-0.4,1.3s-0.4,0.9-0.4,0.9c0.2,0.3,0.2,0.4,0.3,0.4c-0.1-0.1-0.3-0.4-0.3-0.4c-0.7-1.1-0.7-1.8-0.7-1.8l-0.2-1.3
		l0.2-2v-0.9l0.1-0.2h-11.7l0.2,2.2L768.8,258.4z M803.1,238.4c0,3.3-1.1,4.8-3.1,5.1c-2,0.2-12.1,1.5-16.5,2
		c-4.4,0.4-5.9-0.4-5.9-1.5c0-1.1,0-27.7,0-27.7l25.5,1.8C803.1,217.9,803.1,235.1,803.1,238.4z M776.3,165.9l26.9,1.3l-0.4,13.7
		l-12.1,0.2l0.4,21.1l-14.8,1.8V165.9z"/>
</g>
<g id="Refrigerator">
	<path class="st6" d="M95,329.7l31.3-7.8l5.2-0.3l0.4-3.9L95.5,314L95,329.7z M120.5,269.4c0,0,0.9-2.2,2.4-2.9
		c1.5-0.7,5.1-1.7,5.1-1.7l-0.8-7.2l-44.7,6.1c0,0,0.6,1.9,0.4,3.9c-0.1,2,0.8,9.8,0.8,9.8s5.5-1.4,13.7-3.4
		C105.5,272.1,120.5,269.4,120.5,269.4z M155.8,147l-0.4-1.1l-0.4-1.5l-1.8-0.7h-27.5c-0.4,1.1-0.9,2.2-1.1,2.6
		c-0.3,0.7-1.1,1.3-2.1,1.3s-12.3,0-16,0.1c-3.6,0.1-25.9,0.4-29.2,0.2c-3.3-0.2-14.3,0-15.7-0.4c-0.4-0.1-0.8-0.4-1.1-0.8l-1.1,0
		L27,145.9c0,0-3.3,0.2-4.4,0.4c-1.1,0.2-0.9,2.2-0.9,2.2l1.1,134.5c0,0,9,0,10.3,0.4c1.3,0.4,4,10.1,6.6,24.7
		c2.6,14.5,5.7,32.8,5.7,32.8l16.3,4.4l2.3-0.2l0.3-1l7.6-1.1L71.3,303c0,0-15-3.6-16.7-7.3c-1.6-3.5,0-8.6,16.9-14.4l0-0.1
		c0,0-0.8-8.1-1-11.6c-0.2-3.4-1.4-18.1-1.4-18.1l2.2-0.4c0,0,7.8,0,8.5,0.3c0.7,0.3,0.9,2.3,0.9,2.3l45.2-6.4l-0.2-3.2l0.8-0.7
		c0,0,8.3,0,9.2,0.1c1,0.1,2.1,2.6,2.8,6.8c0.7,4.2,0.7,12.9,0.7,12.9s3.5-0.2,6.8-0.2c3.3,0,12.3-0.2,12.3-0.2L155.8,147z"/>
</g>
<g id="Couch">
	<path class="st7" d="M885.2,254c-1.3,0-1.7,0.3-5.1,0.3s-4-0.1-7.2,0.2c-3.1,0.3-5.9,0.5-9.9,0.7c-4,0.2-7,1.2-9.7,1.4
		c-2.7,0.2-8.2,0.9-10.9,1.1c-2.7,0.2-12.7,0.2-18.7,1.6s-6.5,6-6.5,6s-16.1,0.8-22.3,1.4c-6.2,0.6-7.7,3.3-8.2,6.2
		c-0.5,2.9,0.1,38.4,0.1,38.4s-3.9,0-7.3-0.1s-8.3-0.7-11.6,0.9c-3.3,1.6-5,4.3-4.9,7.1s2.1,26.6,2.1,26.6l0.4,2.6
		c3.3,5.2,6.5,11.3,6.5,11.3l5.3,0.4c0,0,0,0,0.4,2.4c0.4,2.4,2.4,0.4,2.4,0.4l1.1,2c0,0,3.7,1.3,5.3,1.5c1.5,0.2,4.6,2,5.7,2.9
		c1.1,0.9,4.2,6.6,4.8,7.7c0.7,1.1,5.9,7.3,8.6,10.6s5.1,11.7,4.4,18.9c-0.1,1-0.2,2.3-0.4,3.8l41.9,11.5l4.4,27l8.8,2.6l9.4-1.7
		l2.6-25.8c0,0,4.5-0.7,6.8-1.1s2.4-2.5,2.4-2.5l3.8-0.4l0.1-166.3C889.9,253.8,886.5,254,885.2,254z"/>
</g>
<g id="Leaf_Carpet">
	<path class="st8" d="M886,420.5c0,0-0.2,2.1-2.4,2.5s-6.8,1.1-6.8,1.1l-2.6,25.8l-9.4,1.7l-8.8-2.6l-4.4-27l-41.9-11.5
		c-0.9,9.1-2.5,25.4-2.7,29.4c-0.2,4.6-0.4,7.9-1.3,8.6c-0.9,0.7-21.1,17.4-24.7,19.8c-3.5,2.4-8.4,2.2-12.3,2.2
		c-4,0-19.2-2.2-40.7-4.6s-41.6-5.1-49.1-5.9s-7.9-4.8-8.6-6.6c-0.7-1.8-2.4-21.4-3.1-29.1c-0.2-2.5-0.3-6.1-0.3-10.2
		c-32.7,5.2-56.7,9.1-60.1,9.6c-11.9,2-15.2,2.6-16.8,3.3c-1.7,0.7-2.3,3.3,1.7,5c0,0,145.7,57.1,150.3,58.1
		c4.6,1,18.2,5.9,21.1,7.6s52.2,20.1,59.1,22.8c6.9,2.6,27.7,11.2,27.7,11.2h39.6V420.1L886,420.5z"/>
</g>
</svg>
