<svg xmlns="http://www.w3.org/2000/svg" viewBox="0 0 1200 890">
	<style>
		.sop-fireplace svg {
			background-image: url("images/sop-fireplace.png");
			background-size: 100% 100%;
			background-repeat: no-repeat;
			max-width: 1200px;
			width: 100%;
			border: 0 solid #FFFFFF;
			border-radius: 15px;
		}
	</style>
	<g id="Fireplace" class="svg-item">
		<a href="https://www.kaplanco.com/product/31680/sense-of-place-fireplace?c=1%7CSO1000&linkingParam=%7B%7D">
			<path d="M799 241v-29h9l2-2v-5l-2-2h-77l3 2 1 1 2 1 2 4v1l1 2v5c-1 1-1-2-1 2v5l1 4c1 2 0 2 2 3l2 2v3l2 3v3l2 3v6h-2l-1-3-1-5-1-4-4-4-3-4-1-4-3-2c0-1 3-3 1-5-3-1-5-1-5-3l-1-7c0-1 1-2-1-3s-2-3-2-3l-1-2-1 5v5l-2 5 2 5 1 5 1 3 1 4 2 3 1 2-3-2-2-4v-4l-2-3v-3l-2-4v-5l-3 2-2 1-2 1v4h-2l-1-2h-1v-1l-2-1-1 1-1 1-1 1h-1l-2 2 1-4 1-1v-1-1-2l-1-1v-2l1-2v-1l-1-2v-1-2l-1-2h-14l-1 4-1 1-1 1v4l-1 1-1 1v2l-1 1v1l-1 2h-1l-1-2-1-2-1 1-1 1-1 1h-2l-1 1-2 1-1 1h-3l-1-1 1-1 1-2 1-2v-2-2-1l1-2 1-1 1-1 1-1 1-2v-1l2-1h-11l-1 1-1 3 1 3 1 1v2l-1 1-1 1v2c0 2 1 1 2 2v2l-1 3v2l1 2 1 2-2 1v5l2 2h-1v1l-2 1v-2l-1-4-1-2 1-3 1-1h-2v-2l1-1v-4l-1-1-1-1-1-1v-1l2-3-1-2v-1l-1-1v-1l-1-2 1-1 1-2 1-1h-48l1 1 3 2 2 2 2 1 4 2 1 1h1l1 2h1l1 1 1 1 1 1 1 1 1 2 1 1v1l1 1h-2l-5-3-2-1-2-1-2-1h-2l-3-1-2-1-2-1-2-1h-1l-2-1h-1l-2-1h-1v2l1 2 1 2v2l1 2 1 2v6l1 1v1l-1 6v3l-1 3v2l-2 3-1 1-1 1-2-2-2-2v-3l-1-3-1-2v-2-1-2l-1-2v-1l-1-2v-1-1-2-1l-1-2-1-2 1-2v-3l1-2-5 5-3 3c-2 0-3 2-3 2l-2 2-2 1-2 1h-1l-3 1-2 1-1 1h-1l2-3 1-1 2-3 1-2 3-2 2-4 3-4 4-3 4-2 1-2h-4l-2 2-1 1-2 2-4 2-1 1-2 2h-1l-1 1h-3l-1 1-2 1-1 1-1 1h-3l-1 1h-2l3-3 1-1s-3 1 0-1l3-2 2-2 2-2 1-1h1l1-1 1-1 1-2h-22l-1 1-1 2-1 1-1 1v1l-1 1-1 1v2h-1l-2-1-1-1-1-1-1-1-1-1-1-1h-1l-1-1s-1 1 0 0l1-2v-1h-93l-2 1v6l1 1h11l-1 29H314v7h1v1h9l1 347-1 9c0 6-3 2-3 5v25s1 2 3 2l5-1a9448 9448 0 00601-2v-26c0-3-5-3-5-10V249h10l3-1v-7H799z"/>
		</a>
	</g>
	<g id="FireplaceLabel" class="svg-label">
		<g>
			<path class="svg-label-fill" d="M956 233H726c-5 0-9-4-9-9v-83c0-5 4-9 9-9h230c5 0 9 4 9 9v83c0 5-4 9-9 9z"/>
			<text transform="translate(737 173)" class="svg-text-base svg-text-bold svg-text-title">
				Fireplace
			</text>
			<text transform="translate(737 209)" class="svg-text-base svg-text-price">
				$549.95
			</text>
		</g>
	</g>
	<g id="Couch" class="svg-item">
		<a href="https://www.kaplanco.com/product/33139/sense-of-place-tan-vinyl-couch?c=1%7CSO1000&linkingParam=%7B%7D">
			<path d="M0 399v402l129 2 10 63h29l4-2 9-60h3v-2l12-16v-5l55-69 1 9h21l4-3 7-47 8-7c1 0 4-14 4-37l1-116c0-19-2-27-21-29s-30-2-72-2l-121 1-3-30c-2-15-6-32-12-38s-15-10-18-10h-8l-11-6c-3-2-9-3-14-2l-11 2-6 2z"/>
		</a>
	</g>
	<g id="CouchLabel" class="svg-label">
		<g>
			<path class="svg-label-fill" d="M301 394H70c-5 0-9-4-9-9v-82c0-5 4-9 9-9h231c4 0 8 4 8 9v82c1 5-3 9-8 9z"/>
			<text transform="translate(82 334)" class="svg-text-base svg-text-bold svg-text-title">
				Tan Vinyl Couch
			</text>
			<text transform="translate(82 370)" class="svg-text-base svg-text-price">
				$299.95
			</text>
		</g>
	</g>
	<g id="Chair" class="svg-item">
		<a href="https://www.kaplanco.com/product/33139/sense-of-place-tan-vinyl-couch?c=1%7CSO1000&linkingParam=%7B%7D">
			<path d="M1200 762l-53-3-6 56-28-2-9-59-3 1c-3 0-5-3-5-3s-5-58-4-111c0-53 1-89 2-96 2-8 9-12 14-13l30-1 2-21c0-6 4-8 7-10l24-1h29v263z"/>
		</a>
	</g>
	<g id="ChairLabel" class="svg-label">
		<g>
			<path class="svg-label-fill" d="M1099 484H868c-5 0-9-4-9-9v-82c0-5 4-9 9-9h230c5 0 9 4 9 9v82c0 5-4 9-8 9z"/>
			<text transform="translate(880 424)" class="svg-text-base svg-text-bold svg-text-title">
				Tan Vinyl Chair
			</text>
			<text transform="translate(880 461)" class="svg-text-base svg-text-price">
				$209.95
			</text>
		</g>
	</g>
	<g id="BlueLeafCarpet" class="svg-item">
		<a href="https://www.kaplanco.com/product/33168/sense-of-place-blue-leaf-carpet-6-x-9?c=26%7CCR1035&linkingParam=%7B%7D">
			<path d="M1141 815l-28-2-9-59-3 1c-3 0-5-3-5-3l-3-62-811-4-5 32-4 3h-21l-1-9-55 69v5l-12 16v2h-4l-8 59-4 3h-29l-10-64-129-1v89h1200V762l-53-3-6 56z"/>
		</a>
	</g>
	<g id="BlueLeafCarpetLabel" class="svg-label">
		<g>
			<path class="svg-label-fill" d="M764 649H525c-5 0-9-4-9-9v-82c0-5 4-9 9-9h239c5 0 9 4 9 9v82c0 5-4 9-9 9z"/>
			<text transform="translate(537 589)" class="svg-text-base svg-text-bold svg-text-title">
				Blue Leaf Carpet
			</text>
			<text transform="translate(537 625)" class="svg-text-base svg-text-price">
				$295.95
			</text>
		</g>
	</g>
</svg>
