<svg version="1" xmlns="http://www.w3.org/2000/svg" viewBox="0 0 1200 759">
	<defs>
		<style>
      svg {
        background-image: url(images/sop-fireplace.png);
        background-size: 100% 100%;
        background-repeat: no-repeat;
        max-width: 1200px;
        width: 90%;
        border: 15px solid #FFFFFF;
        border-radius: 25px;
      }
      path {
        fill: transparent;
        cursor: pointer;
        transition: fill 0.2s;
      }
      svg a:focus,
      svg a:hover {
        outline: none;
      }
      svg a:focus path,
      svg a:hover path {
        fill: rgba(216, 209, 94, 0.5);
        cursor: pointer;
      }
    </style>
  </defs>
  <g>
		<a href="https://www.kaplanco.com/product/31680/sense-of-place-fireplace?c=0%7CSO1000">
			<title>Fireplace</title>
    	<path d="M435 211l-1 1v6l2 1h8v26H323l-1 1v6l1 1h9l2 84 11-6 8-1h12c2 1 6 5 6 7v8l-2 5 3 4-3 1-5 2-10 8-13 5-1 1h-1l-6 4 3 189v3l-3 3-1 1-1 1v19h19s0-11 4-21 14-12 14-12h34s2 1 2 7v36s102 3 192 3 263-5 263-5l2 1h5v-25l-2-7V251h8l1-1v-6l-1-1-124 1v-26h9l1-1v-6l-2-1-321 1z" />
		</a>
  </g>
  <g>
		<a href="#">
			<title>Chair</table>
    	<path d="M939 635l-5-41-7-3-2-2v-96c0-27-3-37 1-44s9-8 15-9l64-3 90-3 8-39c3-14 9-21 17-24s13-4 24-3l56 6v180s-3-2-5-1l-2 1-4 1h-2l-7-2c-3 0-7 2-10 5-3 2-8 9-9 13l-2 5-2 5a110 110 0 0 0-5 22l-3 7 1 3v4s0 5 3 5 3-1 4-3l2-5 2-2 2 2 1 7v11l1 5 2-2v-6l1-1h1v12l1 3-63 5-8 45-11 3-13-4-6-46-14-6h-2l-88-34-6 31-12 2-8-4z" />
		</a>
  </g>
  <g>
		<a href="#">
			<title>Sofa</title>
    	<path d="M21 404c2 3 5 4 9 4l12-2c5 0 14 4 27 7l62 20-5-18c-2-6-5-15-9-21s-14-9-19-9-24-1-34 0L0 396v8l15-3c4-1 5 1 6 3zm310 77c0-15-2-20-6-25-4-4-33-2-63-2l-125 1-2-6-2 2v1l-8 8-11 5h-2l-17 6-3 7c-1 2-5 1-6 1h-2c-2 0-4 0-6 3s-8 6-11 8h-4-3c-3 0-5 6-6 9v12l2 3c2 3 4 8 4 12l3 20 1 28 1 18 71-2 7-29c0-2-6-3-10-5l-18-10-5-2c-5-2-3-5-1-5l13 3 18 4c4 0 2-8-1-13l-16-20-15-10c-6-4-16-5-16-5h-4c-4 0-1-4 2-5l6-4 2-2c2-2 13-5 13-5l1-1c1-1 12 2 12 2h1l2-2 2-2c2-2 9-4 12-4l7-1 1-1h10l13 4 1 1c1 1 5-2 5-2l1-1 8-1 1 2c1 2-1 10-1 13a138 138 0 0 1-10 38v3c0 3 4 5 4 5l4 2 34 20c5 3 4 9 3 9-2 1-8-3-10-5l-23-13c-1-1-6 0-9 2l-7 2c-2 0-1 2 0 7 0 4 3 18 2 21s-6 1-8-1c-2-1-4-14-4-14l-1-3c-1-3-7-1-9 0l-6 29h7l14 2 5-2h7l62 3 24-2 9-2h56V481zm-37 175l2 8h14l7-3v-3l-6-2h-17zm-147 37l-8 36 4 3 4 5h33l96-83-117 3-12 36zm-1-35h-16l-12 41-5 23 7 1 6 3 15-46c4-13 5-22 5-22zm-31 2l-36 1s-2 10-1 15l5 21 7 16 3 8h9l9-37 3-13 1-11zm-55 17c2 0 3-2 3-6l-1-10-28 1 16 8c2 2 8 7 10 7zm-26-4l-7-4c-7-4-18-7-18-7H1l-1 44 11 2c4 1 7 6 9 6s3-6 5-10l6-12 1-3 9-9 1-2c2-1-8-5-8-5zm32 18c-4-3-16-7-16-7l-1 4 1 10-2 16-6 12s11-3 19-3l21 1-6-17c-1-4-7-13-10-16zM52 535l-16-2-10-1-26-3v63h54l-1-16v-26l-1-15zm-40-49l16-5s-11-13-15-22L0 423v71s8-7 12-8z" />
		</a>
  </g>
</svg>
