<svg xmlns="http://www.w3.org/2000/svg" viewBox="0 0 1200 890">
	<defs>
		<style>
			svg {
				background-image: url(images/sop-kitchen.png);
				background-size: 100% 100%;
				background-repeat: no-repeat;
				max-width: 1200px;
				width: 100%;
				border: 0 solid #FFFFFF;
				border-radius: 15px;
			}
			path {
				fill: transparent;
				cursor: pointer;
				transition: fill 0.2s;
			}
			svg a:focus,
			svg a:hover {
				outline: none;
			}
			svg a:focus path,
			svg a:hover path {
				fill: rgba(216, 209, 94, 0.5);
				cursor: pointer;
			}
		</style>
	</defs>
	<g id="Fireplace" data-info="<div>Fireplace</div><div>Item 31680</div>">
	  <a href="https://www.kaplanco.com/product/31680/sense-of-place-fireplace?c=1%7CSO1000">
			<title>Fireplace</title>
    	<path d="M936.03 248.12l1.51-.57-.28-5.76-.94-.57-137.48-.94v-28.25s7.09-.19 8.41-.09c1.32.09 2.74-1.32 2.83-2.46.09-1.13-.09-3.97-.09-4.54s-1.13-1.89-4.06-1.89h-74.58c.5.53 1.34 1.41 1.73 1.7.57.43 1.98 2.27 2.55 3.4.57 1.13 1.84 2.55 1.84 2.55s2.55 2.41 2.83 2.83c.28.43-.14 1.98-.14 2.41s-.43 1.84-.57 2.69c-.14.85-.57 1.98-.71 2.98s-.14 2.98-.14 2.98-.43 2.13-.28 3.12c.14.99 1.28 2.83 1.28 2.83l1.42 1.42s1.28 1.13 1.98 1.42c.71.28 1.13.71 1.13.71l.85 2.41s.57 1.7.71 2.41 0 .71 0 .71 0 .99.14 1.7l.85 1.7.28.99.28 1.13 1.13.99s.14 1.28-.28 1.7c-.43.43-.57.57-.57 1.13s1.28 1.42 1.28 1.42-.43 1.56-.85 1.56h-1.56c-.99 0-.57-.99-.57-.99s-.28-1.7-.57-3.4c-.28-1.7-.28-1.98-.28-2.69s-.85-1.42-1.56-2.41c-.71-.99-1.84-1.13-3.12-2.83-1.28-1.7-2.83-1.84-2.83-1.84s-.71-1.56-.99-2.13c-.28-.57.14-1.7.14-1.7s0-1.42-.43-2.13-.57-1.56-.57-2.13c0-.57-.71-.99-.99-1.7s-.85.14-.85.14l-1.42.14s-.14-.57 0-.99c.14-.43.14-1.56.14-2.13 0-.57 0-1.42-.28-2.13s-1.42-1.84-2.13-2.27c-.71-.43-1.13-.85-1.56-1.42-.43-.57-.28-1.7-.28-2.69s.14-3.26-.14-4.82c-.28-1.56-.71-2.27-1.98-3.97-1.28-1.7-2.69-3.4-2.69-3.4l.14 2.13-.71 1.56s-.28 1.42-.28 2.13-.14 1.42-.28 2.41c-.14.99-.57 1.98-.57 1.98s-.85 1.7-.85 2.83c0 1.13.28 2.41.28 2.41s0 1.7.14 2.41c.14.71 0 .99.28 2.13.28 1.13.71 1.98.71 1.98s.28 1.56.28 2.41.43 1.42 1.13 1.98c.71.57.71 3.12 1.56 5.39.85 2.27 3.83 4.82 3.83 4.82s-1.7-1.28-2.55-2.13-1.98-1.42-2.83-2.27c-.85-.85-.57-3.69-1.28-4.96-.71-1.28-.71-2.13-1.42-3.54-.71-1.42-.43-2.83-.71-4.11-.28-1.28-.43-2.55-.43-3.26s-.28-2.27-.43-3.26c-.14-.99-.85-1.42-.85-1.42l-1.28.71s-.57-.28-1.42-.28 0 0-1.42.28-.57.28-.57.28-1.7.57-2.13.85-.28.43-.71.71c-.43.28 0 1.42 0 1.42s.43 1.28.99 1.98c.57.71.14 1.42.14 1.98s-1.28.28-1.7.28c-.43 0-.71-1.42-.71-1.42s-.85-.85-1.7-1.84-1.98-1.56-1.98-1.56-.85.43-1.28.85c-.43.43-.99 1.13-1.7 1.98-.71.85-1.98 1.13-2.83 1.7-.85.57-.99 0-.28-1.42s1.98-2.27 2.13-3.69-1.13-1.56-1.28-2.55.57-1.7 1.13-3.54c.57-1.84-.14-3.83-.14-3.83l-1.13-.85s-.43-.57-.57-1.84c-.12-1.06-.04-2.3-.01-3.26h-13.69c0 .09-.01.18-.05.29-.14.43-.28 1.13-.71 1.7-.43.57-.28.85-.28.85l-1.13.99-.85 1.13-.71.85-.28 1.42s-.43 1.28-.43 1.84c0 .57-.14 1.13-.71 1.98-.57.85-.43 1.28-.43 1.28s-.28.85-.99 2.41-.57 1.7-.57 1.7l-.43 1.28-1.42-1.42c-.71-.71-.28-1.13-.99-1.98-.71-.85-1.42-1.98-1.42-1.98s-.71 1.28-1.13 1.84c-.43.57-.71 1.42-1.13 2.41s-.85.57-3.54 1.98c-2.69 1.42-.85.57-1.56 1.13-.71.57-.99.43-1.98.43s-2.55-.43-2.55-.43.57-.57 1.42-1.13c.85-.57.28-1.42.28-2.69s.71-1.98.85-2.41c.14-.43.71-1.84 1.84-3.69s.71-2.27.99-3.54c.28-1.28.99-1.56 1.42-1.98.37-.37 1.82-2.57 2.65-4.26h-11.82c-.69.81-1.4 1.79-1.74 2.56-.57 1.28-.14 2.13.43 2.83.57.71 1.28 2.41 1.13 3.69s-1.7 3.4-1.7 3.97c0 .57 1.98 2.55 2.41 3.26.43.71.28 1.7-.43 2.98s-.57 1.56-.57 2.69 1.28 1.7 1.7 2.55c.43.85 0 .57-.28 1.56s.14 1.13-.28 2.27c-.43 1.13-1.28 1.13-1.13 2.69.14 1.56.28 2.27 1.28 3.83.99 1.56 1.13 1.84.43 1.84s-1.42-.57-2.27-1.13c-.85-.57-.43-1.98-.85-4.11-.43-2.13.28-2.27.85-3.54s-1.56-3.26-2.13-4.25c-.57-.99.99-2.13 1.56-2.98.57-.85-1.7-3.97-2.83-5.67-1.13-1.7 1.84-1.84 2.27-3.26.43-1.42-2.55-3.69-3.69-5.39-1.13-1.7 1.42-3.12 2.83-5.1.3-.42.49-.85.62-1.28-16.56 0-33.5 0-50.24-.01l.02.01 1.84.85s.57 0 1.56.28 1.13.57 1.13.57 1.13.71 1.7 1.13c.57.43 1.13.99 1.98 1.56.85.57 1.42 1.42 1.42 1.42s.99.85 1.56 1.13c.57.28 1.13.71 1.13.71l1.28.99s1.7.99 2.13 1.28c.43.28 1.56.71 2.55 1.42.99.71 1.56 1.13 2.27 1.84.71.71 2.13 2.55 2.55 3.4.43.85 1.28 4.54 1.28 4.54l-.85-.99c-.85-.99-2.69-1.42-3.54-1.7-.85-.28-.57-.43-1.42-.99-.85-.57 0 0-1.7-.85s-.71-.14-1.56-.71c-.85-.57-1.13-.43-1.98-.99-.85-.57-.43 0-1.42 0s-3.4.14-5.39-1.42c-1.98-1.56-1.28-.85-2.41-1.28-1.13-.43-2.98-1.28-2.98-1.28s-2.41-1.28-4.25-1.98-3.54-1.84-3.54-1.84v1.28c0 .57.85 1.56.85 1.56s.57.71 1.56 2.13c.99 1.42.71 1.98.85 2.69s.28 1.28.28 2.27v1.98c0 1.27.14 1.42.14 1.98s.28 1.13.43 2.27 0 .71.14 1.13c.14.43.28.99.28 1.98v1.84c0 .71.14.99.14.99s0 .43.14 2.83c.14 2.41 0 1.42 0 1.84 0 .43-.14 1.28-.14 1.7 0 .43-.28 1.7-.57 2.83-.28 1.13-.14 1.98-.14 1.98s-.14 1.13-.43 1.56c-.28.43-.28.99-.71 2.13-.43 1.13-.71.85-1.28 1.42-.57.57-.85.99-.85.99l-1.42 1.56-.85-1.13-.99-.99s-.99-1.28-1.42-2.41c-.43-1.13 0-1.28-.28-2.41-.28-1.13-.43-.99-.99-2.27-.57-1.28-.43-.43-.71-1.56-.28-1.13-1.13-3.12-1.42-4.82-.28-1.7-.14-4.11-.57-5.53-.43-1.42-.85-3.69-1.42-5.53-.57-1.84-.28-4.25-.71-6.38-.43-2.13 1.98-7.09 1.98-7.09s-1.84 2.55-2.69 3.26c-.85.71-1.98 2.55-2.69 3.83-.71 1.28-3.12 3.12-5.24 4.68-2.13 1.56-3.12.99-4.39 1.42-1.28.43-5.81 2.13-7.37 3.12-1.56.99-3.4 1.84-3.4.99s.99-2.98 1.7-3.12c.71-.14 2.27-2.55 3.54-4.39 1.28-1.84 1.84-2.27 3.54-4.39s5.81-6.38 8.36-8.5c2.55-2.13 6.09-3.69 7.09-4.54.11-.1.21-.2.3-.3h-3.44c-.3.23-.59.44-.82.58-.71.43-2.41 1.56-3.69 2.69-1.28 1.13-2.83 2.69-4.25 3.83-1.42 1.13-3.68 2.27-5.1 2.98-1.42.71-1.98 1.28-2.55 1.56-.57.28-3.26 1.42-5.24 1.98-1.98.57-6.52 2.41-7.23 2.27-.71-.14 1.98-2.13 1.98-3.26s2.55-2.13 4.11-2.98c1.56-.85 3.69-4.54 4.25-5.53.3-.52 1.98-2.42 3.53-4.13h-20.3c-.03.05-.06.11-.09.17-.85 1.42-1.84 2.41-3.26 4.54-1.42 2.13-3.83 4.39-4.54 4.96-.71.57-1.98-.28-3.12-1.42s-3.4-2.69-4.68-3.54-.99-2.41.14-4.11c.12-.18.27-.38.44-.6-8.18 0-16.04 0-23.49-.01-.6.12-1.24.07-1.81 0-39.54-.01-66.98-.03-67.45-.06-1.7-.09-2.46 1.8-2.46 3.4 0 1.61.28 2.27.19 3.02-.09.76 1.04 2.36 2.93 2.36s8.22-.09 8.22-.09l.28 27.68-2.74.19s-133.51.28-135.97.28c-2.46 0-2.46 1.32-2.46 2.17s.09 3.87.09 4.35c0 .47.57 1.42 1.8 1.42s8.79.09 8.79.09.76 349.04.76 351.68c0 2.65 1.51 3.59-.76 5.1-2.27 1.51-3.4 2.27-3.4 5.29s.12 24.85.12 24.85-.14 1.28 3.12 1.28c3.26 0 5.1-1.13 5.1-1.13s104.95 4.68 293.74 4.68 297.85-5.88 297.85-5.88 1.13.71 1.56 1.13c.43.43 2.06.64 3.76.64 1.7 0 3.54-.35 3.54-.92 0-.57.07-24.94.07-27.71 0-2.76-5.1-3.61-5.1-8.36s.68-349.89.68-349.89l10.63-.42z"/>
		</a>
  </g>
	<g id="Couch" data-info="<div>Tan Vinyl Couch</div><div>Item 33129</div>">
	  <a href="https://www.kaplanco.com/product/33139/sense-of-place-tan-vinyl-couch?c=1|SO1000">
			<title>Tan Vinyl Couch</title>
    	<path d="M83.37 481.98s28.91-.85 87.02-1.13c58.11-.28 94.39.57 103.18.85 8.79.28 16.44 4.25 18.71 6.8 2.27 2.55 3.97 9.07 4.25 20.13.28 11.06-.57 66.9-.57 73.13s-.43 41.53-.71 52.16c-.28 10.63-.99 18.71-1.56 22.96-.57 4.25-.71 6.38-1.56 7.51-.85 1.13-6.52 6.94-6.52 6.94l-1.28.43-6.38 45.07-3.26 3.83-22.54.85-1.7-9.64-54.71 69.45-.57 4.11-12.05 16.72-1.7 1.7-.99.14-5.95 53.43-5.81 8.08-28.91.85-9.76-64.48H.17V399.2s2.69.14 3.97 0c1.28-.14 3.83-1.42 3.83-1.42s4.39-1.42 5.24-1.42c.85 0 9.92-.71 11.76-.28s3.12 1.13 5.39 1.84c2.27.71 3.54 1.13 4.25 1.56.71.43 2.13 1.42 2.13 1.42s2.55 1.13 2.98 1.56c.43.43-.28 0 1.13.71 1.42.71 2.83 1.42 2.83 1.42l1.7.57s6.66-.43 11.34 1.28c4.68 1.7 11.06 5.39 15.02 12.76 3.97 7.37 5.24 11.76 8.22 28.91 2.98 17.14 3.41 33.87 3.41 33.87z"/>
		</A>
  </g>
	<g id="Chair" data-info="<div>Tan Vinyl Chair</div><div>Item 33140</div>">
	  <a href="https://www.kaplanco.com/product/33140/sense-of-place-tan-vinyl-chair?c=1|SO1000">
			<title>Tan Vinyl Chair</title>
    	<path d="M1137.2 530.92s-17.57.38-23.81.38-11.53 2.46-12.85 3.78c-1.32 1.32-4.91 6.05-5.67 10.02-.76 3.97-1.32 13.98-1.7 28.16-.38 14.17-1.13 54.99-.76 89.76s1.32 64.06 1.89 74.27.76 13.98 1.89 15.5c1.13 1.51 1.51 1.13 2.65 1.89 1.13.76 2.27.94 2.27.94l1.13.38 1.51-.57 8.88 57.83 28.35 1.13 6.24-56.69 52.91 3.21V498.98s-20.03-.38-32.69-.19c-12.66.19-16.25.76-21.17 1.89-4.91 1.13-6.09 6.48-7.37 13.61-1.33 7.37-1.7 16.63-1.7 16.63z"/>
		</A>
  </g>
</svg>
