<svg xmlns="http://www.w3.org/2000/svg" viewBox="0 0 1200 727">
  <defs>
		<style>
			svg {
				background-image: url(images/sop-kitchen.png);
				background-size: 100% 100%;
				background-repeat: no-repeat;
				max-width: 1200px;
				width: 100%;
				border: 0 solid #FFFFFF;
				border-radius: 15px;
			}
			path {
				fill: transparent;
				cursor: pointer;
				transition: fill 0.2s;
			}
			svg a:focus,
			svg a:hover {
				outline: none;
			}
			svg a:focus path,
			svg a:hover path {
				fill: rgba(216, 209, 94, 0.5);
				cursor: pointer;
			}
		</style>
	</defs>
  <g id="Stools">
    <a href="https://www.kaplanco.com/product/32844/sense-of-place-kitchen-island-stools-set-of-2?c=1%7CSO1000">
      <title>Kitchen Island Stools</title>
      <path d="M625 528l14-1-25-102-118 9-3 12v46l11-1 13-57 18 3-2 50 20-3h2l2-33-1 33 8 1 14 3-3-52 20-2 14 61 17 6a654 654 0 00-1 27zM333 390c-6 0-14 7-14 14v10s-6 1-5 7c0 6 5 7 5 7l-31 145 6 5 13-2 5-21 34 13-1 30 6 3h12l2-1-2-212-30 2zm13 166l-31-12 1-6 32-4-2 22zm2-32l-29 4 18-81 15 2-4 75zm45-103l1 118 32 12 16-1-2-46 1-2v-1l2-1 6-1-15-71-41-7zm30 119l-19-7-4-83 16-1 21 90-14 1z"/>
    </a>
  </g>
  <g id="Kitchen_Island">
    <a href="https://www.kaplanco.com/product/31704/sense-of-place-kitchen-island?c=1%7CSO1000">
      <title>Kitchen Island</title>
      <path d="M704 471l-2 14-1 6 1 3v1h3v-27l-1-1v4zm130-126s2-1 2-3c0-3-7-5-7-5l-130-8h-3l-3 7c0 2-3 3-4 4h-18-45l-10 1h-9v-1h-25a396 396 0 01-32-2c-2-1-2-3-2-3l-3-2-197 9s-5 1-5 4 4 5 5 5l15 2 2 269 7 3 13-1 9-14-1-25 66 26v35l3 21 10 4 15-2 5-20 1-49 185-24 1 4 8 3 10-1 4-9 69-11 19 5v30l10 18 9 2 11-2 5-246 4-3c2 0 9-2 9-10 1-8-3-11-3-11zM442 556l-1-6-14 1-33-12-1-118 65 12 1 129-17-6zm347-32l-69-15 1 4c0 7-1 13-6 20l-11 16h-2v-2l2-3h-2l-3-1-9-1-12 3c-2 1 0 1-1 3v4h-3v-4l-3-2-2-2-3-2-6-4h-7l1 3v2c-1 0-2 0-2-2l-6-11-2-3-19 2v12c1 8 1 17-1 19-1 3-1 4-9 5a1149 1149 0 00-111 15l-11-1 1-144 182-14v30h8c6 0 11 2 11 2v-7l1-8 1 3c0 2 0 0 0 0l1-4v-1l2 9v11l1 1c1 1 2 1 2-1v-7l1 5v6l1 1v-43l87-7-3 113zM661 335l9 2s-3-4-3-8v-1l-13 1a28 28 0 00-5 5l12 1zm23 118l-8 2v11l2 1 3 1 1 2 2 1 2 1 1 2 1 5v3l1 2h1v-5-3l-1-3 1-1v-4-2-3l-1-1-1-2-1-2 2 2h2v-1l2 2 1 1 1 3v-5-3s-5-4-11-4z"/>
    </a>
  </g>
  <g id="Range_and_Sink">
    <a href="https://www.kaplanco.com/product/31698/sense-of-place-range-and-sink?c=1%7CSO1000">
      <title>Range and Sink</title>
      <path d="M400 457l1-1v-6h-1v7zm-63-10l-7 29 20-1 1-24-15 1 1-5zm65-134c0-5-1-7-4-7l-37-3c-3 0-5-2-5-4v-11c0-5-3-5-4-5h-9c-3 0-3 2-3 2l-21-3 5-7c2-3-2-3-3-1l-5 7-16-2v-2l-3-1v-25c0-9 3-15 7-15s5 13 5 13l3 1 2-1s1-4-1-9c-1-6-5-9-10-9s-12 4-12 13l-1 33h-2l-34-2v1l7 6 2 6-4 8v2l-2 11-6-3-3 3-2 1h-18v-1l-8-2-1-27 2-6c-61 0-131 15-131 15l-2-1h-6c-2 0-4 1-4 4l1 167 10 6v23l4 2h9l3-5v-2l16 6v5l1 10 4 2 10-1 5-11v-3l167-13 5-24-24 2-23-7v-41h16v-3h4l2 2 1 1 29-2v-2c0-7 8-14 14-14l30-2v-35l-14-2c-2 0-6-2-6-5s6-4 6-4l53-3 1-26zm-142-26c0-2-5-6-5-6v9l2 3s3-3 3-6z"/>
    </a>
  </g>
  <g id="Refrigerator">
    <a href="https://www.kaplanco.com/product/31703/sense-of-place-refrigerator?c=1%7CSO1000">
      <title>Refrigerator</title>
      <path d="M509 470l25 2 2-35-19-3-8 36zm-15-24l2-12-2 1v11zm153-243l-22-1-4 1-131 3-8-1c-1-1-4 0-4 3v128l67-3c-2-1-4-3-4-7-1-6 7-9 7-10 1-1-1-4-2-5v-3h6l4-1h3l-1-2-1-1h5l-1-4h-1l1-3-1-1v-1h2l1 1h2c0-1-1-1 1-1h4l1-2h2l1 1v1l-1 1c0 1-1 1 1 1l1 1h1l2 1 1 2c0 1 0 0 0 0l-1 1h-2l-1 1s1-1 0 0l-1 1c-1 1-2 0-1 1l3 1v-1h2l1 2v1l-1 1-1 1v1h8l3 3-2 2h8l9 1 1 2v2l8-1v-6l6-12 5-5 2-1 4-2 3-2-1-2c-1-1 2-2 3-2l5 1v3c0 1-1 1 1 2l9 4 2 2 1-94c0-2-1-3-5-3zm-80 92zm60 182l24-15v-40l-37 3 13 52zm-51-41l2 39 27 2-9-42-20 1zm-19 37v-22l-2 22h2z"/>
    </a>
  </g>
  <g id="Armoire">
    <a href="https://www.kaplanco.com/product/31692/sense-of-place-armoire?c=1%7CSO1000">
      <title>Armoire</title>
      <path d="M1186 159l-74-2c-3 0-5 3-5 3l-194 12-50-2c-3 0-5 2-5 5l-2 223c0 10-10 17-14 18l-15 1s2 14 1 30l-2 41 2 1v2l2 2-1 34 8 2h10l8-12 188 39v3l5 17 12 2 8-1 6-15-1-4 59-9 8 13 12 1 8-1v-34l17-2 11-365-2-2zM934 505l-99-20v-4l2-43 37-1 62 11-2 57zm126 23l-105-22 2-50h42l63 10-2 62z"/>
    </a>
  </g>
  <g id="Mirror">
    <a href="https://www.kaplanco.com/product/31868/sense-of-place-circle-acrylic-mirror?c=1%7CSO1000">
      <title>Circle Acrylic Mirror</title>
      <path d="M829 337s7 2 7 5c0 2-2 3-2 3l2 3c8-4 15-10 21-16l1-158c0-2 2-4 5-4a79 79 0 00-62-34c-48 0-87 50-87 111 0 34 12 64 31 84l84 6z"/>
    </a>
  </g>
  <g id="Storage_Baskets">
    <a href="https://www.kaplanco.com/product/31875/sense-of-place-rectangular-storage-baskets-set-of-3?c=1%7CSO1000">
      <title>Rectangular Storage Baskets</title>
      <path d="M610 495l-18-5-28-5h-10l-44 5-17 2v87h4v1h7a3322 3322 0 00112-15c7-1 7-2 8-5 2-2 2-11 1-19v-1-1-1-1-2-1-1-1-2l1-19v-10l-16-6zm-167 5h-2v2l-1 2 2 52 17 5-1-64-15 3zm395-62l-3 43v4l99 20 2-57-62-10h-36zm161 18h-42l-2 51 105 21 2-62-63-10zm-685-35c-1-6 5-7 5-7v-7l-29 1-1-1-3-1-3-1v3l-16 1-1 41 24 6 24-2 5-26s-5-1-5-7zm22 31l16-1v-1l-15-3-1 5z"/>
    </a>
  </g>
  <g id="Carpet">
    <a href="https://www.kaplanco.com/product/33167P/sense-of-place-natures-stripe-carpets-6-x-9">
      <title>Nature's Stripe Carpet</title>
      <path d="M75 565l12 8 10 5c6 2 7 3 7 4l17 10 130 73 41 20 41 23 16 7 5 3 7 9H0V608s19 5 37 4c17-1 28-6 32-9 4-2 4-3 4-5l1-13 1-9 1-5-1-6z"/>
    </a>
  </g>
</svg>
