<svg xmlns="http://www.w3.org/2000/svg" viewBox="0 0 550 825">
	<defs>
		<style>
			svg {
				background-image: url(images/sop-kitchen.png);
				background-size: 100% 100%;
				background-repeat: no-repeat;
				max-width: 550px;
				width: 100%;
				border: 0 solid #FFFFFF;
				border-radius: 15px;
			}
			path {
				fill: transparent;
				cursor: pointer;
				transition: fill 0.2s;
			}
			svg a:focus,
			svg a:hover {
				outline: none;
			}
			svg a:focus path,
			svg a:hover path {
				fill: rgba(216, 209, 94, 0.5);
				cursor: pointer;
			}
		</style>
	</defs>
	<g id="Couch" data-info="<div>Tan Vinyl Couch</div><div>Item 33129</div>">
	  <a href="https://www.kaplanco.com/product/33139/sense-of-place-tan-vinyl-couch?c=1|SO1000">
			<title>Tan Vinyl Couch</title>
    	<path d="M65.65 473.65l-10.49-7.37-9.92-21.12L.02 414.54V175.16s11.91-4.25 13.61-5.24 14.17-6.52 17.29-7.8c3.12-1.28 10.91-3.69 13.04-4.68s5.95-4.54 8.5-4.54 5.24-2.27 9.64-4.39c4.39-2.13 8.5-3.97 10.63-3.97s5.81-3.69 8.65-4.82c2.83-1.13 7.51-1.98 9.21-2.41 1.7-.43 7.09-2.41 12.19-5.24s10.63-5.39 15.31-7.37c4.68-1.98 14.6-6.52 19.42-7.94s7.94-2.83 12.19-5.1 7.37-3.97 10.91-3.54c3.54.43 4.25.85 5.24 1.28.99.43 3.54 2.13 3.54 2.13s20.83-8.93 23.81-10.2c2.98-1.28 6.66-3.83 8.22-3.69 1.56.14 7.8.85 10.91 4.96 3.12 4.11 6.66 11.76 7.94 19.28 1.28 7.51 1.56 11.91 1.56 11.91s26.36 7.37 53.15 16.44 60.94 21.4 63.5 22.82 5.1 4.11 5.39 7.09c.28 2.98-1.13 18.99-1.84 27.5s-1.28 18.14-1.7 34.72c-.43 16.58-.43 30.05-.43 30.05l-8.08 5.53-4.82 22.79-7.8 4.11-9.92-3.54-1.84-10.35L90.17 431.13l-1.28.71v2.55l-11.06 7.51.43 23.1-12.61 8.65z"/>
		</a>
  </g>
	<g id="Chair" data-info="<div>Tan Vinyl Chair</div><div>Item 33140</div>">
	  <a href="https://www.kaplanco.com/product/33140/sense-of-place-tan-vinyl-chair?c=1|SO1000">
			<title>Tan Vinyl Chair</title>
    	<path d="M398.43 708.35l-4.96-22.96-9.21-8.65s1.84-45.92 1.98-57.97c.14-12.05-3.69-29.2-2.98-37.56.71-8.36 4.68-17.43 13.32-22.39s15.31-6.52 22.68-5.53c7.37.99 20.55 12.05 20.55 12.05l109.98-71.57V825h-23.95L420.4 715.02l-6.94 5.1-.85-.14-14.18-11.63z"/>
		</a>
  </g>
	<g id="Carpet" data-info="<div>Blue Leaf Carpet</div><div>Item 33168</div>">
	  <a href="https://www.kaplanco.com/product/33168/sense-of-place-blue-leaf-carpet-6-x-9?c=26%7CCR1035">
			<title>Blue Leaf Carpet</title>
    	<path d="M396.59 558.83c8.65-4.96 15.31-6.52 22.68-5.53 7.37.99 20.55 12.05 20.55 12.05l109.98-71.57V307.11l-208.75-84.88c-.28 5.49-.52 11.95-.73 20.11-.43 16.58-.43 30.05-.43 30.05l-8.08 5.53-4.81 22.81-7.8 4.11-9.92-3.54-1.84-10.35L90.17 431.13l-1.28.71v2.55l-11.06 7.51.43 23.1-12.61 8.65-10.49-7.37-9.92-21.12L.02 414.54V244.67l-.14.08V670.8l169.8 155.06H549.8V825h-23.95L420.4 715.02l-6.94 5.1-.85-.14-14.17-11.62-4.96-22.96-9.21-8.65s1.84-45.92 1.98-57.97c.14-12.05-3.68-29.2-2.98-37.56.71-8.36 4.67-17.43 13.32-22.39z"/>
		</a>
  </g>
	<g id="Basket" data-info="<div>Woven Basket</div><div>Item 31708</div>">
	  <a href="https://www.kaplanco.com/product/31708/sense-of-place-woven-baskets-set-of-3?c=1%7CSO1000">
			<title>Woven Basket</title>
    	<path d="M491.88 79.96c-1.13-5.48-.76-5.29-.94-7.75-.19-2.46-3.21-4.54-4.54-7.56-1.32-3.02-4.16-4.35-4.54-6.24-.38-1.89-2.83-4.72-3.4-5.48-.57-.76-3.97-1.32-3.97-1.32s-.94-17.2-6.24-24.38c-5.29-7.18-9.26-5.86-11.72-5.67-2.46.19-7.75 6.61-9.83 12.47s-3.02 10.2-3.02 10.2-8.88-3.59-12.47-3.97c-3.59-.38-9.07-.19-10.02-.19s-8.31.76-9.26 1.13c-.94.38-10.2 1.32-14.55 2.27-4.35.94-10.2 5.48-11.53 6.61s-2.08 3.78-3.21 5.29c-1.13 1.51-.57 6.05-.57 6.05s-6.05 5.48-11.15 20.22c-5.1 14.74-5.48 30.61-5.48 35.15 0 4.54.76 9.64 1.13 10.77.38 1.13 3.59 3.59 8.5 5.29s9.45 3.78 11.53 4.54c2.08.76 5.29 1.7 7.37 3.02s10.02 3.78 15.5 6.8 13.42 5.67 17.57 6.8 9.26.94 12.85-.38c3.59-1.32 45.54-24 48.19-25.32 2.65-1.32 2.27-3.21 2.27-3.21s1.89-6.99 2.65-15.31.02-24.35-1.12-29.83zm-27.59-29.1c-1.32-.94-4.54-2.27-7.75-3.4s-8.13-2.83-8.13-2.83 3.4-11.91 5.48-14.74 4.72-4.35 6.61-3.97c1.89.38 4.16 4.54 5.67 8.69 1.51 4.16 3.02 10.96 3.02 12.47 0 1.51.57 5.1.57 5.1s-4.15-.38-5.47-1.32z"/>
		</a>
  </g>
</svg>
