<svg xmlns="http://www.w3.org/2000/svg" viewBox="0 0 890 532">
  <defs>
		<style>
			svg {
				background-image: url(images/sop-dining.png);
				background-size: 100% 100%;
				background-repeat: no-repeat;
				max-width: 1200px;
				width: 100%;
				border: 0 solid #FFFFFF;
				border-radius: 15px;
			}
			path {
				fill: transparent;
				cursor: pointer;
				transition: fill 0.2s;
			}
			svg a:focus,
			svg a:hover {
				outline: none;
			}
			svg a:focus path,
			svg a:hover path {
				fill: rgba(216, 209, 94, 0.5);
				cursor: pointer;
			}
		</style>
	</defs>
  <g id="Farmhouse_Table">
    <a href="https://www.kaplanco.com/product/33066P/sense-of-place-farmhouse-table-and-benches?c=1%7CSO1000">
      <title>Farmhouse Table and Benches</title>
      <path d="M721 210l-147-5 17 2-4 2s1 3-1 3l-3-1h-13s-1 2-3 2l-3-1-17-1-3 2h-6l3-2-7-3c0-2 14-3 14-3v-1l-74-3-71 10v5h6v44l-13 3v2l1 2 1 54h9l2-12h10l4-19 1 23 5 1h3l3-30 38 3 1 5h9v-5l16 2v1l5 1 5-1 89 6 6 44 6 1 3-1 2-45 4-1 7 38h9v-58l1-2a91181 91181 0 01-105-8v-6l120 7 1 40 5 27h6l3-1 1-30 16-5 2 11h5l3-1 1-15 8-2 1 11h2l4 11h8l-1-95 5-2v-4zm-249 50l-48-3v-27l48 3v27zm40 2l1-5h6v6l-7-1zm-13-22l-1 2 2 2v18l-15-2v-27l42 2-28 5zm169 48v-21l13 1 1 15-14 5zm27-10l-1-11h4l2 9-5 2zm-28-35v-2l34-9 1 12-35-1z"/>
    </a>
  </g>
  <g id="30_in_Storage">
    <a href="https://www.kaplanco.com/product/31672/sense-of-place-30-inch-compartment-storage?c=1%7CSO1000">
      <title>30 inch Compartment Storage</title>
      <path d="M327 278l8-1 1-3h-8l-1 4zm96-70l-1-53-1-1-37-1-1 3v2h-11v-2l-1-1h-5v3c0 1-4 2-18 2-13 0-15-1-15-2h-3v2s-1 3-9 2l-10-1v-1l-33 3h1v1l1 2h1l2-1 1 1h1l2-2h3l1-1h3l-1 1-1 1-1 1-1 1-1 1-1 1-2 1v2h5l2-1h3l2-1h1v-1l1 1h2l1 1v1l-2 1-2 1h-2-2l-1 1h-1l-1 1h-2l1 1-1 1c0-1 0 0 0 0l-2-1-2 1h-1l-1 2v1h-1l1 2-2 1 1 1c1 1 0 0 0 0l1 2 1 1 2 1c1 1-2 1-3 1h-1l1 1 2 1 2 2h2l1 1 1 1v2h-1c-2 0 0 0-1-1l-3-1c-1-1-1 0-1 1v2h2l2 2-2 2h3l1 1 2 2v1l2 1 2 2 1 2 4 3v2l-2-1-1-1-2-2-2-2-2-2c-2-1-1-1-1-2l-2-1h-3v5l2 2v5l-1 1 1 2v4l-1 1-1-1v-1-1l-1-1v-2-2l1-1c0-2 0 0-1-1l-1-3v-2-3-2h-1v-1l-1-1-2-1 1 2-1 1v1l2 1v1l1 2-1 2-1 2-1 1 1 1v3a119 119 0 001 7v5l-1 2h-1-1v-2-2-2-2l-1-2v-3l-1-1-1-3c0-2-1-1-1-1v5l1 4v10l1 1v4l-1 2-1 1v9l-2-1v-3-1l-1-1 1-2-2-3v-3l-1-1v6l1 2v3h-1l-1-2v-1-2l-1-1v-1-2l-1-2v-1-2-2-2-4-2-2l1-2-1-1-3 12-2 4v17h8l6 1 2-16c0-2 2-3 2-3 1-1 4-2 6-1 1 0 3 0 2 1v3l49 2s1-4 5-3l5 1-2 37 49-10 1-1 13-3-1-44h-5v-5l19-3zm-134 45l8 1 8 2 1 1 15 2 7 1v4h8l1-14-48-3v6zm378-12v2l35 2v-13l-35 9zm43-31l-1-61h-3l-11 2-126-1v1h-18l-1-2-25 1-1 2 1 51 23 1h1l-1-1-1-8v-1l-1-1-1-1v-1-1l-1-2v-1l-1-1h-1v-1h2l1 1v-2l-1-2h-4-3-3l-1 1h-3l1-1v-1h1v-1l2-1h1v-1h3l1-1h2l1-1-1-1-1-1v-1l-1-1v-1h3s0 1 0 0l-1-2h-1l-2-1h-2v-1h1l1-1-1-1v-1h-1l1-1h1s-1 0 0 0l2 1-1-1-1-1v-2h1l2 1 1 1 1 2 1 1 1 1 1 1v1l1 1v2l2 1h1v-1-1-2-1-1l-1-1v-1l-1-1-1-1v-1l-1-1h-1l-1-1v-2l2 1h1l1 2 1 1 2 1v1l1 1v1l1 1v2h1l1-2 2-1 1-2 1-1 1-1h2l-1 1v1l-1 1v1l-1 1v1h2l1-2 1-1 2-2h1l1-2h1l-1 2-1 1-1 2-1 1v1l-1 2 2-1 1-1 1-1v-1l2-1 1-1v-1l1-1h1v1l-1 2-1 1-1 2h-1l-1 2h-1l-1 2h3l2-2h1l1-1h1v1l1 1v1h-1-1l-2 1-1 2h2l1-1v-1h1l1 1v1h1v1l-1 1 2 1c1 1 0 0 0 0l1 1s0-1 0 0v2h1l1 1v2h2l1 1 1-1h1l3-1h3v1l-1 1h-3-4l-1 1h-1l-1 3v1 1h5l-1 1h-1c-1 0 0 0 0 0l-1 1-1 1h-4v1l-1 1-1 10 136 5zm-286 47v-14 14z"/>
    </a>
  </g>
  <g id="Oval_Table">
    <a href="https://www.kaplanco.com/product/31757/sense-of-place-42-inch-oval-table?c=1%7CSO1000">
      <title>Oval Table</title>
      <path d="M216 386h6l9-2v-9l-15-2v13zm96-68v-13l-6 2-6 1 1 14 6-2 5-2zM87 400l-13 1v8l13-1v-8zm-12 35l8 2 5-2v-14l-14 2 1 12zm236-103l-9 2 1 17 8-3v-16zm14-73l-15-2h-4l-3 4c-2 1-5 3-23 3s-27-1-28-2l-2-6-15 1s-3 7-7 11l-9 8a140 140 0 01-39 2l-7-6-1-1s-5 4-22 4l-24-1h-3l-2-2-1-2s-27 5-46 11-21 11-20 15c2 3 17 7 17 7l1 53 22-2 1-40 69 7 7 133 8 1 8-2 1-133 24-5 2 35 16-5 2-35 27-5 2-21-10 1-23-1c-3 0-5-3-5-4-1-1-2-4 1-5a120 120 0 0139-3l1-1h1l5-1 5 1h1v3l23-4c13-2 17-4 17-4l1-4 1-1h10s-1-2-3-2zm-186 36l-21 1H99c-8 0-13-3-15-4l-5-6c0-1 8-3 13-3h29c11 0 19 1 20 3 0 0 4 4 4 6 0 1 0 2-6 3zm136-7l-1 13 25-6 15-5 1-13s-6 3-16 5l-24 6zm36 78l-6 2v7h6v-9zm2 31l-5 2v9h6l-1-7v-4z"/>
    </a>
  </g>
  <g id="Oval_Carpet">
    <a href="https://www.kaplanco.com/product/33170P/sense-of-place-highland-stripe-oval-carpet-6-x-9-inch">
      <title>Oval Carpet</title>
      <path d="M299 388v-2l-26-3 1 15 25-10zm-133-25l-5-1-3 1-12 2-1 7 21-5v-4zm133 6l-13 4 13 1v-5zm-42 19l-8 3 8 1v-4zM31 406l-3 1 3 4v-5zm82-2l-1-14-13 2v2l14 10zm395-6c0-3-8-14-20-20-12-5-42-14-89-19l-52-5v9l3 25-11 1-3-27-1-8h-5l-5 2a7976 7976 0 004 62l2 15-3 1-9-1-3-16-2-9h-5l-1-5-8-1v-1l-25 8a318 318 0 004 43l-3 2-10-1-5-29-2-1-2-18-37-6-5 2v30l1 12-5 1-7-2-2-80-5-1-2-3h-3v49h-4v46l-8 2-9-1-4-76-24 6-2 15h-4v25l-9-1-2-1-1-43-1 1 1 84-10 1-1-2-2-45-13 2v24l-9 1-2-3 1-21h-1v15l-5 1-8-2v-12l11-1-37 4v9l-6 42-13 1-1-1 1-21 1-28-6-6-4 32-12 2-2-1 3-19c2-8 0-20 0-30v-9l-10 3v132h170s63-4 150-37c86-33 150-64 170-73 19-10 19-22 18-24zM73 410l1-9-26 3 1 8 24-2z"/>
    </a>
  </g>
  <g id="Woven_Basket">
    <a href="https://www.kaplanco.com/product/31708/sense-of-place-woven-baskets-set-of-3?c=1%7CSO1000">
      <title>Woven Basket</title>
      <path d="M806 388l-9-11-5-8-5-3-6-1-1-2s-2 2-2 0l-1-3h-5l-10-16c-4-6-9-11-14-10-6 0-11 5-12 10l-2 9s-5-4-10-4-11 3-12 5l-3 3h-5l-1 4-2-1-1 2s-11-1-14 1-6 3-6 5v7s-8 8-11 15c-2 7-2 27-2 34l3 29c1 2 2 6 9 7l49 6 41 5c4 0 9 0 12-3l25-19 1-9 3-33c1-8-2-16-4-19zm-89-31s4-3 7-3l6 3h-13zm23 1l-1-6c0-2 0-6 3-10s9-3 13 0 10 17 10 17l-25-1zM116 106l4 2-1-3h-4l1 1zm-37 12l1-2 1-2-1-1h-2v3l1 2zm-13-5v-3-3l-1 3-1 2-2 3h2l2-2zm59 6l-3-7-2-2v-1l-4-1-5-1-2-1-1-1h-4l2 4-2 6-3 3-3 2v-4l-2-4v-4l2-2v-1h-9l-1 1h-2l-1 4-1 2 1 2 4 2 1 3c-1 1-3 4-5 4s-2 2-2 2l-2-1-2-4h-1v1 2l1 2v2l1 1v1l-1 1h-2l-1-1-1-1h-1v-2c0-1 0 0 0 0v-1l-1-1-2-1 1-1-1-1v-1l2-2 2-1 1-2v-2l-2-1-2-1-2-1v-1l1-2 1-2h-5v1l1 3v5l-1 3 1 3v3l-2 1-2 1-1 1-2 1-1 1v4l-2-1v9l1 4 2 4h62l2-2 1-4v-10l-1-13z"/>
    </a>
  </g>
  <g id="Curio">
    <a href="https://www.kaplanco.com/product/31708/sense-of-place-woven-baskets-set-of-3?c=1%7CSO1000">
      <title>Woven Basket</title>
      <path d="M769 258l2 1 2 14h6l4-5h6l6-1 22-2s1-4 7-6 15-1 18-1l11-1 10-2 10-1h17V112l-28 1h-40v2l1 2 1 2v7l-1 1v1l-2 1v-1-1l-1-1v-1l-1-2v-2-2-1-1-2l1-2h-2l1 1-1 1v1h-1l-1 1-1 2v3l-1 1-1 1v-1-1l1-3v-1l-1-2-1 1-1 1h-1l-2 1-1-1 1-2-2-1h-2l-3 1v1l1 3c1 1-1 1-1 1v-1l-2-2-1-1-1 1v2l1 1v5c2 0 3 2 3 6v14l-4 1-2 2-2 1v4h-17v-24c0-2 1-4 5-4h12v-1l1-3h-1l-1 1-1 1h-4c-2 0 0 0 0 0l2-2v-1l-2 1c-1 0-2 0-1-1l1-1 1-1v-2-2l1-1v-1h-8l-1 1v1l-1 2-1 1v1l-1-2v-4h-11v2l3 143zm34-20c0 4-1 5-3 6l-16 2c-5 0-6-1-6-2v-28l25 2v20zm-27-72l27 1v14h-12v21l-15 2v-38z"/>
    </a>
  </g>
  <g id="Refrigerator">
    <a href="https://www.kaplanco.com/product/31703/sense-of-place-refrigerator?c=1%7CSO1000">
      <title>Refrigerator</title>
      <path d="M95 330l31-8h5l1-4-36-4-1 16zm26-61s0-2 2-3l5-1-1-7-44 6v4l1 9 13-3 24-5zm35-122l-1-1v-2h-29l-1 2-3 2H63l-2-1h-1l-32-1h-4l-1 3 1 134h10a4162 4162 0 0112 58l17 4h2v-1l8-1-1-40s-15-4-16-7c-2-4 0-9 16-15h1l-1-11-2-19h11l1 3 45-7v-3l1-1 9 1c1 0 2 2 2 6l1 13h19l-2-116z"/>
    </a>
  </g>
  <g id="Couch">
    <a href="https://www.kaplanco.com/product/33139/sense-of-place-tan-vinyl-couch?c=1%7CSO1000">
      <title>Tan Vinyl Couch</title>
      <path d="M885 254h-5l-7 1h-10l-10 2-11 1-18 1c-6 1-7 6-7 6l-22 2c-6 0-8 3-8 6v38h-8c-3 0-8-1-11 1s-5 4-5 7l2 27 1 2 6 12h5l1 2c0 3 2 1 2 1l1 2 5 1 6 3 5 8 9 11c3 4 5 11 4 18v4l41 12 5 27 9 2 9-1 3-26 6-1c2 0 3-3 3-3h4V254h-5z"/>
    </a>
  </g>
  <g id="Leaf_Carpet">
    <a href="https://www.kaplanco.com/product/33168P/sense-of-place-leaf-carpet-6-x-9">
      <title>Leaf Carpet</title>
      <path d="M886 421s0 2-2 2l-7 1-3 26-9 2-9-3-4-27-42-11a1238 1238 0 00-4 38l-25 19c-3 3-8 3-12 3l-41-5-49-6c-7-1-8-5-9-7l-3-29v-10l-60 10-17 3c-2 1-2 3 2 5a11919 11919 0 00171 66l59 23 28 11h40V420l-4 1z"/>
    </a>
  </g>
</svg>
