<svg version="1" xmlns="http://www.w3.org/2000/svg" viewBox="0 0 1200 727">
  <defs>
    <style>
      svg {
        background-image: url(images/sop-kitchen.png);
        background-size: 100% 100%;
        background-repeat: no-repeat;
        max-width: 1200px;
        width: 90%;
        border: 15px solid #FFFFFF;
        border-radius: 25px;
      }
      path {
        fill: transparent;
        cursor: pointer;
        transition: fill 0.2s;
      }
      svg a:focus,
      svg a:hover {
        outline: none;
      }
      svg a:focus path,
      svg a:hover path {
        fill: rgba(216, 209, 94, 0.5);
        cursor: pointer;
      }
    </style>
  </defs>
  <g>
    <a href="https://www.kaplanco.com/product/31704/sense-of-place-kitchen-island">
      <title>Kitchen Island</title>
      <path d="M838 346s2-1 2-4-3-4-7-5l-133-9v6l-6 5h-16l-4-3-3-5v-3h-13l-5 5-6 2h-12l-2 2-1 1h-1v2h-18v-1l-4-2h-8l-7-1v-2h-5l-1 1-1 4-5 1h-23l-5-3-1-3-1-1h-2l-197 9c-1 0-4 1-4 4s2 5 7 6l13 1 2 267 8 4 13-1 8-15v-23l64 25 1 35 4 20 9 4 14-2 7-19v-52l184-22 1 5 8 2 10-1 4-10 69-9 18 5v31l9 17 11 2 10-1 6-247 8-4 3-2 2-8c0-4-4-8-4-8zM400 539l-1-119 65 13v128l-64-22zm393-16l-68-15v5c0 6 0 8-2 13-1 4-3 4-6 10l-9 13-2-1 3-4-5-1-5-1h-8l-1 1-8 2v6c0 2-2 1-3 1v-7h-3l-4-3-4-3-4-2h-6l2 3-2 2-3-4-5-10-1-2-18 1v12l-2 17-1 5-8 2-103 15h-14l-4-2V434l181-14v31l10-2 10 4-1-9v-6l1-1 1-1 1-2 1 3 1 8 1 8v3l1 1v-6l1-2 2 1v-33l86-6-2 112zm-99-69l-10-1-4 2v10l2 1 4 2 3 2 1 2 1 2 1 1 1 1v-4l-1-2 2-2v-5l-2-3v-2l2 1c1 1 0 2 1 1l1-2 1 2v3l1-1v-1h2v-4l-6-3zm13 39h2v-26l-2 18v8z" />
    </a>
  </g>
  <g>
    <a href="https://www.kaplanco.com/product/32844/sense-of-place-kitchen-island-stools-set-of-2">
      <title>Kitchen Island Stools</title>
      <path d="M399 420l1 119 33 11 13-2-1-43 1-3 2-3 8-1-17-70-40-8zm27 119l-16-6-4-84 15-1 22 90-17 1zm-86-150a17 17 0 0 0-15 16v9s-6 2-6 4l1 5 3 4h2l-1 10v2l-4 18-26 116 8 4h11l1-1 5-22 33 13-1 30 5 4h12l2-2-1-211-29 1zm13 166l-32-11 2-7 30-3v21zm1-31l-29 3 18-81 15 3-4 75zm145-14l6 1 2-7-8 1v5zm144 16l-24-102-120 9v2h3l-3 12v44l11-1 13-57 18 3-2 50 21-2 2-43 1 42h4l4 1 2 1 9 1-1-50 19-2 14 60 8 2 10 5v2h-1v24l12-1z" />
    </a>
  </g>
  <g>
    <a href="https://www.kaplanco.com/product/31698/sense-of-place-range-and-sink">
      <title>Kitchen</title>
      <path d="M356 352c-5 0-6-3-7-5s1-5 3-5l56-3v-26c0-5-3-7-6-8l-38-2c-2 0-2-3-2-4l-1-10c0-4-2-6-2-6h-11l-2 2-7-1-12-2 3-6c2-1 2-3 0-4l-3 2-5 7-5-1-9-1v-1l-1-1h-3v-15l1-20c1-6 6-5 7-5l2 10 1 3 3 1 3-1v-2l-2-9c-2-6-7-8-12-8-5 1-9 5-10 14v32h-4l-14-1-16-1v2l2 2c2 2 5 6 5 10 1 4-4 7-4 7v3l-1 6-1 4h-27l-6-1-3-1v-4l-1-20 2-8s-29 0-65 4-66 10-66 10l-2-1h-7c-2 0-3 2-3 5v18l2 1-1 1-1 1v9h1l1 1h2l1 1v2h-5v14l1 1 1 1h1v1h1l1 1h2l2-1 2-1 1 1-1 1v1h-2l-1 1h-1l-1 1h-1l-1-1-1 3-3 2v2l1 1 1 1 1 3h3l1 1-3 1h-1v1l-2 2-1 9 1-1 1-1v-2l2 1 2 2 2 2 2 2v2l-1 1-2-1-1-2-1-3h-2l-2 1v4h2l1 2v2l2 3c1 1 1 1-1 1h-2l-3-1 1 75 10 5v24l2 1h10l3-5v-2l16 6v3l2 12 4 1h10l3-11 1-3 167-13 5-24-24 2-22-7v-41h12l2-1v-2h5l2 2h29v-4l4-8c1-2 6-5 9-6l31-1v-35l-12-1zm-269-3h1v-3c0-1 0 0 0 0v-2l-1-1h-1v7l1-1zm-1-6v-1 1zm250 133l20-1 2-23-17 1-5 23z" />
    </a>
  </g>
  <g>
    <a href="https://www.kaplanco.com/product/31875/sense-of-place-rectangular-storage-baskets-set-of-3?c=0%7CSO1000">
      <title>Standard Classroom Storage Basket</title>
      <path d="M626 498l-10-3-9-3-13-4-13-2h-3l-9-3h-6l-64 8v14l25-4v9l-3 1h-9l-5 1-8-2v65s2 3 4 3h10l109-15c5-1 5-2 6-3l2-8 1-42v-7l1-2-6-3zm-176 1h-2l-1 1-1 3-1 5 1 40v1l1 6 17 6v-65l-14 3zm-157-94h-5l1 2-3 1h-11l-1 1v41l22 5 25-1 4-27-6-5v-5l6-3v-7h-29l-3-2zm48 48l17-1v-2l-15-4-2 7zm501-17l-1 2-2 42 1 4 2 1 96 20 2-57-68-11-30-1zm154 20l-34-2-1 2-2 50 103 21 2-61-68-10z" />
    </a>
  </g>
  <g>
    <a href="https://www.kaplanco.com/product/31868/sense-of-place-circle-acrylic-mirror">
      <title>Circle Acrylic Mirror</title>
      <path d="M805 134c-48 0-87 50-87 112 0 34 12 65 31 86l84 5c4 1 7 3 7 5l-2 4 1 2c8-4 16-10 22-18l1-155c0-2 2-4 5-4h2a80 80 0 0 0-64-37z" />
    </a>
  </g>
  <g>
    <a href="https://www.kaplanco.com/product/31703/sense-of-place-refrigerator?c=0%7CSO1000">
      <title>Fridge</title>
      <path d="M654 203l-23-2-5 1v2l-121 2v-1l-17-1c-2 0-3 2-3 5l-1 127 66-3s-5-4-4-9c1-4 5-7 6-8l1-2-2-3v-2l6-1h6s1-2-1-2-1-2-1-2h3l1-1v-2l-1-1v-4l2-1 4-1h3l1 1 1-2 1-1 1 1h1v1l1 1v1l-1 1 1 1h2l2 1 1 1v1l-1 1h-3l-1 1 1 1h3l2 1 1 1v1l-1 1h-1v1l10 4-2 2h9l6 1 2 1 1 3h7v-7l5-9 3-6 3-1 1-1 6-2 2-1v-2l-1-1v-1h7c1 0 2 1 1 2l-1 1v1l1 1 5 1 3 2 2 1 3 3v-95c0-2 0-3-3-3zm-23 273l25-15v-39l-37 3 12 51zm-50-40l1 38 28 2-10-42-19 2zm-20 37h2l-1-33-1 33zm-46-3l25 1 1-35-18-3-8 37zm-16-23l3-12h-3v12z" />
    </a>
  </g>
  <g>
    <a href="https://www.kaplanco.com/product/31692/sense-of-place-armoire?c=0%7CSO1000">
      <title>Armoire</title>
      <path d="M1189 159l-76-2c-3 0-4 4-4 4l-188 10h-53c-4 0-6 1-6 4l-1 202c0 15 0 23-4 29-3 7-8 8-11 9l-14 2v26l-2 44 1 1v2c0 2 4 2 4 2l-1 36 6 2 11-1 7-11v-2l188 39v4l4 16 12 3 10-1 4-15v-5l58-9 8 13 11 2 10-2 1-33 9-2c4 0 6-3 6-5l11-354v-7l-1-1zM938 505l-96-20-2-1-1-4 2-42 1-2 30 1 68 11-2 57zm124 22l-103-21 2-50 1-2 34 2 68 10-2 61z" />
    </a>
  </g>
</svg>
